%TF.GenerationSoftware,KiCad,Pcbnew,(6.0.7)*%
%TF.CreationDate,2022-11-27T14:48:19+01:00*%
%TF.ProjectId,LOOCBaseSystem,4c4f4f43-4261-4736-9553-797374656d2e,rev?*%
%TF.SameCoordinates,Original*%
%TF.FileFunction,Copper,L1,Top*%
%TF.FilePolarity,Positive*%
%FSLAX46Y46*%
G04 Gerber Fmt 4.6, Leading zero omitted, Abs format (unit mm)*
G04 Created by KiCad (PCBNEW (6.0.7)) date 2022-11-27 14:48:19*
%MOMM*%
%LPD*%
G01*
G04 APERTURE LIST*
%TA.AperFunction,ComponentPad*%
%ADD10C,1.350000*%
%TD*%
%TA.AperFunction,ComponentPad*%
%ADD11R,1.350000X1.350000*%
%TD*%
%TA.AperFunction,ComponentPad*%
%ADD12R,1.500000X1.500000*%
%TD*%
%TA.AperFunction,ComponentPad*%
%ADD13C,1.500000*%
%TD*%
%TA.AperFunction,Conductor*%
%ADD14C,0.300000*%
%TD*%
G04 APERTURE END LIST*
D10*
%TO.P,U1,J5_19,3V3*%
%TO.N,unconnected-(U1-PadJ5_19)*%
X150860000Y-102000000D03*
%TO.P,U1,J5_18,EN*%
%TO.N,unconnected-(U1-PadJ5_18)*%
X148320000Y-102000000D03*
D11*
%TO.P,U1,J5_1,5V*%
%TO.N,VCC*%
X105140000Y-102000000D03*
D10*
%TO.P,U1,J5_17,SP*%
%TO.N,unconnected-(U1-PadJ5_17)*%
X145780000Y-102000000D03*
%TO.P,U1,J5_16,SN*%
%TO.N,unconnected-(U1-PadJ5_16)*%
X143240000Y-102000000D03*
%TO.P,U1,J5_15,G34*%
%TO.N,unconnected-(U1-PadJ5_15)*%
X140700000Y-102000000D03*
%TO.P,U1,J5_14,G35*%
%TO.N,unconnected-(U1-PadJ5_14)*%
X138160000Y-102000000D03*
%TO.P,U1,J5_13,G32*%
%TO.N,unconnected-(U1-PadJ5_13)*%
X135620000Y-102000000D03*
%TO.P,U1,J5_12,G33*%
%TO.N,unconnected-(U1-PadJ5_12)*%
X133080000Y-102000000D03*
%TO.P,U1,J5_11,G25*%
%TO.N,unconnected-(U1-PadJ5_11)*%
X130540000Y-102000000D03*
%TO.P,U1,J5_10,G26*%
%TO.N,unconnected-(U1-PadJ5_10)*%
X128000000Y-102000000D03*
%TO.P,U1,J5_9,G27*%
%TO.N,unconnected-(U1-PadJ5_9)*%
X125460000Y-102000000D03*
%TO.P,U1,J5_8,G14*%
%TO.N,unconnected-(U1-PadJ5_8)*%
X122920000Y-102000000D03*
%TO.P,U1,J5_7,G12*%
%TO.N,unconnected-(U1-PadJ5_7)*%
X120380000Y-102000000D03*
%TO.P,U1,J5_6,GND*%
%TO.N,GND*%
X117840000Y-102000000D03*
%TO.P,U1,J5_5,G13*%
%TO.N,unconnected-(U1-PadJ5_5)*%
X115300000Y-102000000D03*
%TO.P,U1,J5_4,SD2*%
%TO.N,unconnected-(U1-PadJ5_4)*%
X112760000Y-102000000D03*
%TO.P,U1,J5_3,SD3*%
%TO.N,unconnected-(U1-PadJ5_3)*%
X110220000Y-102000000D03*
%TO.P,U1,J5_2,CMD*%
%TO.N,unconnected-(U1-PadJ5_2)*%
X107680000Y-102000000D03*
%TO.P,U1,J4_19,CLK*%
%TO.N,unconnected-(U1-PadJ4_19)*%
X105140000Y-128000000D03*
%TO.P,U1,J4_18,SD0*%
%TO.N,unconnected-(U1-PadJ4_18)*%
X107680000Y-128000000D03*
%TO.P,U1,J4_17,SD1*%
%TO.N,unconnected-(U1-PadJ4_17)*%
X110220000Y-128000000D03*
%TO.P,U1,J4_16,G15*%
%TO.N,unconnected-(U1-PadJ4_16)*%
X112760000Y-128000000D03*
%TO.P,U1,J4_15,G2*%
%TO.N,DATA_B*%
X115300000Y-128000000D03*
%TO.P,U1,J4_14,G0*%
%TO.N,DATA_A*%
X117840000Y-128000000D03*
%TO.P,U1,J4_13,G4*%
%TO.N,unconnected-(U1-PadJ4_13)*%
X120380000Y-128000000D03*
%TO.P,U1,J4_12,G16*%
%TO.N,unconnected-(U1-PadJ4_12)*%
X122920000Y-128000000D03*
%TO.P,U1,J4_11,G17*%
%TO.N,unconnected-(U1-PadJ4_11)*%
X125460000Y-128000000D03*
%TO.P,U1,J4_10,G5*%
%TO.N,unconnected-(U1-PadJ4_10)*%
X128000000Y-128000000D03*
%TO.P,U1,J4_9,G18*%
%TO.N,unconnected-(U1-PadJ4_9)*%
X130540000Y-128000000D03*
%TO.P,U1,J4_8,G19*%
%TO.N,unconnected-(U1-PadJ4_8)*%
X133080000Y-128000000D03*
%TO.P,U1,J4_7,GND*%
%TO.N,GND*%
X135620000Y-128000000D03*
%TO.P,U1,J4_6,G21*%
%TO.N,unconnected-(U1-PadJ4_6)*%
X138160000Y-128000000D03*
%TO.P,U1,J4_5,RXD*%
%TO.N,unconnected-(U1-PadJ4_5)*%
X140700000Y-128000000D03*
%TO.P,U1,J4_4,TXD*%
%TO.N,unconnected-(U1-PadJ4_4)*%
X143240000Y-128000000D03*
%TO.P,U1,J4_3,G22*%
%TO.N,unconnected-(U1-PadJ4_3)*%
X145780000Y-128000000D03*
%TO.P,U1,J4_2,G23*%
%TO.N,unconnected-(U1-PadJ4_2)*%
X148320000Y-128000000D03*
D11*
%TO.P,U1,J4_1,GND*%
%TO.N,GND*%
X150860000Y-128000000D03*
%TD*%
D12*
%TO.P,J1,1*%
%TO.N,VCC*%
X161700000Y-113470000D03*
D13*
%TO.P,J1,2*%
%TO.N,DATA_A*%
X159160000Y-114490000D03*
%TO.P,J1,3*%
%TO.N,DATA_B*%
X161700000Y-115510000D03*
%TO.P,J1,4*%
%TO.N,GND*%
X159160000Y-116530000D03*
%TD*%
D14*
%TO.N,DATA_B*%
X164750000Y-112250000D02*
X164750000Y-114000000D01*
X164000000Y-111500000D02*
X164750000Y-112250000D01*
X163240000Y-115510000D02*
X161700000Y-115510000D01*
X125250000Y-111500000D02*
X164000000Y-111500000D01*
X115300000Y-121450000D02*
X125250000Y-111500000D01*
X115300000Y-128000000D02*
X115300000Y-121450000D01*
X164750000Y-114000000D02*
X163240000Y-115510000D01*
%TD*%
%TA.AperFunction,Conductor*%
%TO.N,VCC*%
G36*
X170433621Y-100528502D02*
G01*
X170480114Y-100582158D01*
X170491500Y-100634500D01*
X170491500Y-129365500D01*
X170471498Y-129433621D01*
X170417842Y-129480114D01*
X170365500Y-129491500D01*
X100634500Y-129491500D01*
X100566379Y-129471498D01*
X100519886Y-129417842D01*
X100508500Y-129365500D01*
X100508500Y-128610428D01*
X100528502Y-128542307D01*
X100582158Y-128495814D01*
X100652432Y-128485710D01*
X100717012Y-128515204D01*
X100730309Y-128528596D01*
X100841369Y-128658631D01*
X101036884Y-128825616D01*
X101256113Y-128959960D01*
X101260683Y-128961853D01*
X101260687Y-128961855D01*
X101489087Y-129056461D01*
X101493660Y-129058355D01*
X101580502Y-129079204D01*
X101738861Y-129117223D01*
X101738867Y-129117224D01*
X101743674Y-129118378D01*
X101832965Y-129125405D01*
X101933363Y-129133307D01*
X101933372Y-129133307D01*
X101935820Y-129133500D01*
X102064180Y-129133500D01*
X102066628Y-129133307D01*
X102066637Y-129133307D01*
X102167035Y-129125405D01*
X102256326Y-129118378D01*
X102261133Y-129117224D01*
X102261139Y-129117223D01*
X102419498Y-129079204D01*
X102506340Y-129058355D01*
X102510913Y-129056461D01*
X102739313Y-128961855D01*
X102739317Y-128961853D01*
X102743887Y-128959960D01*
X102963116Y-128825616D01*
X103158631Y-128658631D01*
X103325616Y-128463116D01*
X103459960Y-128243887D01*
X103472004Y-128214812D01*
X103556461Y-128010913D01*
X103556462Y-128010911D01*
X103558355Y-128006340D01*
X103567347Y-127968887D01*
X103951837Y-127968887D01*
X103966063Y-128185933D01*
X103967484Y-128191529D01*
X103967485Y-128191534D01*
X103991641Y-128286646D01*
X104019605Y-128396753D01*
X104022022Y-128401996D01*
X104061891Y-128488478D01*
X104110668Y-128594285D01*
X104114001Y-128599001D01*
X104201730Y-128723134D01*
X104236204Y-128771914D01*
X104240346Y-128775949D01*
X104291331Y-128825616D01*
X104392009Y-128923692D01*
X104572863Y-129044536D01*
X104578171Y-129046817D01*
X104578172Y-129046817D01*
X104767409Y-129128119D01*
X104767412Y-129128120D01*
X104772712Y-129130397D01*
X104778342Y-129131671D01*
X104876464Y-129153874D01*
X104984860Y-129178402D01*
X104990631Y-129178629D01*
X104990633Y-129178629D01*
X105063620Y-129181496D01*
X105202205Y-129186941D01*
X105417466Y-129155730D01*
X105422930Y-129153875D01*
X105422935Y-129153874D01*
X105617963Y-129087671D01*
X105617968Y-129087669D01*
X105623435Y-129085813D01*
X105813213Y-128979532D01*
X105980446Y-128840446D01*
X106119532Y-128673213D01*
X106192843Y-128542307D01*
X106222989Y-128488478D01*
X106222990Y-128488476D01*
X106225813Y-128483435D01*
X106227669Y-128477968D01*
X106227671Y-128477963D01*
X106292614Y-128286646D01*
X106333451Y-128228569D01*
X106399204Y-128201791D01*
X106468996Y-128214812D01*
X106520669Y-128263499D01*
X106534050Y-128296131D01*
X106559605Y-128396753D01*
X106562022Y-128401996D01*
X106601891Y-128488478D01*
X106650668Y-128594285D01*
X106654001Y-128599001D01*
X106741730Y-128723134D01*
X106776204Y-128771914D01*
X106780346Y-128775949D01*
X106831331Y-128825616D01*
X106932009Y-128923692D01*
X107112863Y-129044536D01*
X107118171Y-129046817D01*
X107118172Y-129046817D01*
X107307409Y-129128119D01*
X107307412Y-129128120D01*
X107312712Y-129130397D01*
X107318342Y-129131671D01*
X107416464Y-129153874D01*
X107524860Y-129178402D01*
X107530631Y-129178629D01*
X107530633Y-129178629D01*
X107603620Y-129181496D01*
X107742205Y-129186941D01*
X107957466Y-129155730D01*
X107962930Y-129153875D01*
X107962935Y-129153874D01*
X108157963Y-129087671D01*
X108157968Y-129087669D01*
X108163435Y-129085813D01*
X108353213Y-128979532D01*
X108520446Y-128840446D01*
X108659532Y-128673213D01*
X108732843Y-128542307D01*
X108762989Y-128488478D01*
X108762990Y-128488476D01*
X108765813Y-128483435D01*
X108767669Y-128477968D01*
X108767671Y-128477963D01*
X108832614Y-128286646D01*
X108873451Y-128228569D01*
X108939204Y-128201791D01*
X109008996Y-128214812D01*
X109060669Y-128263499D01*
X109074050Y-128296131D01*
X109099605Y-128396753D01*
X109102022Y-128401996D01*
X109141891Y-128488478D01*
X109190668Y-128594285D01*
X109194001Y-128599001D01*
X109281730Y-128723134D01*
X109316204Y-128771914D01*
X109320346Y-128775949D01*
X109371331Y-128825616D01*
X109472009Y-128923692D01*
X109652863Y-129044536D01*
X109658171Y-129046817D01*
X109658172Y-129046817D01*
X109847409Y-129128119D01*
X109847412Y-129128120D01*
X109852712Y-129130397D01*
X109858342Y-129131671D01*
X109956464Y-129153874D01*
X110064860Y-129178402D01*
X110070631Y-129178629D01*
X110070633Y-129178629D01*
X110143620Y-129181496D01*
X110282205Y-129186941D01*
X110497466Y-129155730D01*
X110502930Y-129153875D01*
X110502935Y-129153874D01*
X110697963Y-129087671D01*
X110697968Y-129087669D01*
X110703435Y-129085813D01*
X110893213Y-128979532D01*
X111060446Y-128840446D01*
X111199532Y-128673213D01*
X111272843Y-128542307D01*
X111302989Y-128488478D01*
X111302990Y-128488476D01*
X111305813Y-128483435D01*
X111307669Y-128477968D01*
X111307671Y-128477963D01*
X111372614Y-128286646D01*
X111413451Y-128228569D01*
X111479204Y-128201791D01*
X111548996Y-128214812D01*
X111600669Y-128263499D01*
X111614050Y-128296131D01*
X111639605Y-128396753D01*
X111642022Y-128401996D01*
X111681891Y-128488478D01*
X111730668Y-128594285D01*
X111734001Y-128599001D01*
X111821730Y-128723134D01*
X111856204Y-128771914D01*
X111860346Y-128775949D01*
X111911331Y-128825616D01*
X112012009Y-128923692D01*
X112192863Y-129044536D01*
X112198171Y-129046817D01*
X112198172Y-129046817D01*
X112387409Y-129128119D01*
X112387412Y-129128120D01*
X112392712Y-129130397D01*
X112398342Y-129131671D01*
X112496464Y-129153874D01*
X112604860Y-129178402D01*
X112610631Y-129178629D01*
X112610633Y-129178629D01*
X112683620Y-129181496D01*
X112822205Y-129186941D01*
X113037466Y-129155730D01*
X113042930Y-129153875D01*
X113042935Y-129153874D01*
X113237963Y-129087671D01*
X113237968Y-129087669D01*
X113243435Y-129085813D01*
X113433213Y-128979532D01*
X113600446Y-128840446D01*
X113739532Y-128673213D01*
X113812843Y-128542307D01*
X113842989Y-128488478D01*
X113842990Y-128488476D01*
X113845813Y-128483435D01*
X113847669Y-128477968D01*
X113847671Y-128477963D01*
X113912614Y-128286646D01*
X113953451Y-128228569D01*
X114019204Y-128201791D01*
X114088996Y-128214812D01*
X114140669Y-128263499D01*
X114154050Y-128296131D01*
X114179605Y-128396753D01*
X114182022Y-128401996D01*
X114221891Y-128488478D01*
X114270668Y-128594285D01*
X114274001Y-128599001D01*
X114361730Y-128723134D01*
X114396204Y-128771914D01*
X114400346Y-128775949D01*
X114451331Y-128825616D01*
X114552009Y-128923692D01*
X114732863Y-129044536D01*
X114738171Y-129046817D01*
X114738172Y-129046817D01*
X114927409Y-129128119D01*
X114927412Y-129128120D01*
X114932712Y-129130397D01*
X114938342Y-129131671D01*
X115036464Y-129153874D01*
X115144860Y-129178402D01*
X115150631Y-129178629D01*
X115150633Y-129178629D01*
X115223620Y-129181496D01*
X115362205Y-129186941D01*
X115577466Y-129155730D01*
X115582930Y-129153875D01*
X115582935Y-129153874D01*
X115777963Y-129087671D01*
X115777968Y-129087669D01*
X115783435Y-129085813D01*
X115973213Y-128979532D01*
X116140446Y-128840446D01*
X116279532Y-128673213D01*
X116352843Y-128542307D01*
X116382989Y-128488478D01*
X116382990Y-128488476D01*
X116385813Y-128483435D01*
X116387669Y-128477968D01*
X116387671Y-128477963D01*
X116452614Y-128286646D01*
X116493451Y-128228569D01*
X116559204Y-128201791D01*
X116628996Y-128214812D01*
X116680669Y-128263499D01*
X116694050Y-128296131D01*
X116719605Y-128396753D01*
X116722022Y-128401996D01*
X116761891Y-128488478D01*
X116810668Y-128594285D01*
X116814001Y-128599001D01*
X116901730Y-128723134D01*
X116936204Y-128771914D01*
X116940346Y-128775949D01*
X116991331Y-128825616D01*
X117092009Y-128923692D01*
X117272863Y-129044536D01*
X117278171Y-129046817D01*
X117278172Y-129046817D01*
X117467409Y-129128119D01*
X117467412Y-129128120D01*
X117472712Y-129130397D01*
X117478342Y-129131671D01*
X117576464Y-129153874D01*
X117684860Y-129178402D01*
X117690631Y-129178629D01*
X117690633Y-129178629D01*
X117763620Y-129181496D01*
X117902205Y-129186941D01*
X118117466Y-129155730D01*
X118122930Y-129153875D01*
X118122935Y-129153874D01*
X118317963Y-129087671D01*
X118317968Y-129087669D01*
X118323435Y-129085813D01*
X118513213Y-128979532D01*
X118680446Y-128840446D01*
X118819532Y-128673213D01*
X118892843Y-128542307D01*
X118922989Y-128488478D01*
X118922990Y-128488476D01*
X118925813Y-128483435D01*
X118927669Y-128477968D01*
X118927671Y-128477963D01*
X118992614Y-128286646D01*
X119033451Y-128228569D01*
X119099204Y-128201791D01*
X119168996Y-128214812D01*
X119220669Y-128263499D01*
X119234050Y-128296131D01*
X119259605Y-128396753D01*
X119262022Y-128401996D01*
X119301891Y-128488478D01*
X119350668Y-128594285D01*
X119354001Y-128599001D01*
X119441730Y-128723134D01*
X119476204Y-128771914D01*
X119480346Y-128775949D01*
X119531331Y-128825616D01*
X119632009Y-128923692D01*
X119812863Y-129044536D01*
X119818171Y-129046817D01*
X119818172Y-129046817D01*
X120007409Y-129128119D01*
X120007412Y-129128120D01*
X120012712Y-129130397D01*
X120018342Y-129131671D01*
X120116464Y-129153874D01*
X120224860Y-129178402D01*
X120230631Y-129178629D01*
X120230633Y-129178629D01*
X120303620Y-129181496D01*
X120442205Y-129186941D01*
X120657466Y-129155730D01*
X120662930Y-129153875D01*
X120662935Y-129153874D01*
X120857963Y-129087671D01*
X120857968Y-129087669D01*
X120863435Y-129085813D01*
X121053213Y-128979532D01*
X121220446Y-128840446D01*
X121359532Y-128673213D01*
X121432843Y-128542307D01*
X121462989Y-128488478D01*
X121462990Y-128488476D01*
X121465813Y-128483435D01*
X121467669Y-128477968D01*
X121467671Y-128477963D01*
X121532614Y-128286646D01*
X121573451Y-128228569D01*
X121639204Y-128201791D01*
X121708996Y-128214812D01*
X121760669Y-128263499D01*
X121774050Y-128296131D01*
X121799605Y-128396753D01*
X121802022Y-128401996D01*
X121841891Y-128488478D01*
X121890668Y-128594285D01*
X121894001Y-128599001D01*
X121981730Y-128723134D01*
X122016204Y-128771914D01*
X122020346Y-128775949D01*
X122071331Y-128825616D01*
X122172009Y-128923692D01*
X122352863Y-129044536D01*
X122358171Y-129046817D01*
X122358172Y-129046817D01*
X122547409Y-129128119D01*
X122547412Y-129128120D01*
X122552712Y-129130397D01*
X122558342Y-129131671D01*
X122656464Y-129153874D01*
X122764860Y-129178402D01*
X122770631Y-129178629D01*
X122770633Y-129178629D01*
X122843620Y-129181496D01*
X122982205Y-129186941D01*
X123197466Y-129155730D01*
X123202930Y-129153875D01*
X123202935Y-129153874D01*
X123397963Y-129087671D01*
X123397968Y-129087669D01*
X123403435Y-129085813D01*
X123593213Y-128979532D01*
X123760446Y-128840446D01*
X123899532Y-128673213D01*
X123972843Y-128542307D01*
X124002989Y-128488478D01*
X124002990Y-128488476D01*
X124005813Y-128483435D01*
X124007669Y-128477968D01*
X124007671Y-128477963D01*
X124072614Y-128286646D01*
X124113451Y-128228569D01*
X124179204Y-128201791D01*
X124248996Y-128214812D01*
X124300669Y-128263499D01*
X124314050Y-128296131D01*
X124339605Y-128396753D01*
X124342022Y-128401996D01*
X124381891Y-128488478D01*
X124430668Y-128594285D01*
X124434001Y-128599001D01*
X124521730Y-128723134D01*
X124556204Y-128771914D01*
X124560346Y-128775949D01*
X124611331Y-128825616D01*
X124712009Y-128923692D01*
X124892863Y-129044536D01*
X124898171Y-129046817D01*
X124898172Y-129046817D01*
X125087409Y-129128119D01*
X125087412Y-129128120D01*
X125092712Y-129130397D01*
X125098342Y-129131671D01*
X125196464Y-129153874D01*
X125304860Y-129178402D01*
X125310631Y-129178629D01*
X125310633Y-129178629D01*
X125383620Y-129181496D01*
X125522205Y-129186941D01*
X125737466Y-129155730D01*
X125742930Y-129153875D01*
X125742935Y-129153874D01*
X125937963Y-129087671D01*
X125937968Y-129087669D01*
X125943435Y-129085813D01*
X126133213Y-128979532D01*
X126300446Y-128840446D01*
X126439532Y-128673213D01*
X126512843Y-128542307D01*
X126542989Y-128488478D01*
X126542990Y-128488476D01*
X126545813Y-128483435D01*
X126547669Y-128477968D01*
X126547671Y-128477963D01*
X126612614Y-128286646D01*
X126653451Y-128228569D01*
X126719204Y-128201791D01*
X126788996Y-128214812D01*
X126840669Y-128263499D01*
X126854050Y-128296131D01*
X126879605Y-128396753D01*
X126882022Y-128401996D01*
X126921891Y-128488478D01*
X126970668Y-128594285D01*
X126974001Y-128599001D01*
X127061730Y-128723134D01*
X127096204Y-128771914D01*
X127100346Y-128775949D01*
X127151331Y-128825616D01*
X127252009Y-128923692D01*
X127432863Y-129044536D01*
X127438171Y-129046817D01*
X127438172Y-129046817D01*
X127627409Y-129128119D01*
X127627412Y-129128120D01*
X127632712Y-129130397D01*
X127638342Y-129131671D01*
X127736464Y-129153874D01*
X127844860Y-129178402D01*
X127850631Y-129178629D01*
X127850633Y-129178629D01*
X127923620Y-129181496D01*
X128062205Y-129186941D01*
X128277466Y-129155730D01*
X128282930Y-129153875D01*
X128282935Y-129153874D01*
X128477963Y-129087671D01*
X128477968Y-129087669D01*
X128483435Y-129085813D01*
X128673213Y-128979532D01*
X128840446Y-128840446D01*
X128979532Y-128673213D01*
X129052843Y-128542307D01*
X129082989Y-128488478D01*
X129082990Y-128488476D01*
X129085813Y-128483435D01*
X129087669Y-128477968D01*
X129087671Y-128477963D01*
X129152614Y-128286646D01*
X129193451Y-128228569D01*
X129259204Y-128201791D01*
X129328996Y-128214812D01*
X129380669Y-128263499D01*
X129394050Y-128296131D01*
X129419605Y-128396753D01*
X129422022Y-128401996D01*
X129461891Y-128488478D01*
X129510668Y-128594285D01*
X129514001Y-128599001D01*
X129601730Y-128723134D01*
X129636204Y-128771914D01*
X129640346Y-128775949D01*
X129691331Y-128825616D01*
X129792009Y-128923692D01*
X129972863Y-129044536D01*
X129978171Y-129046817D01*
X129978172Y-129046817D01*
X130167409Y-129128119D01*
X130167412Y-129128120D01*
X130172712Y-129130397D01*
X130178342Y-129131671D01*
X130276464Y-129153874D01*
X130384860Y-129178402D01*
X130390631Y-129178629D01*
X130390633Y-129178629D01*
X130463620Y-129181496D01*
X130602205Y-129186941D01*
X130817466Y-129155730D01*
X130822930Y-129153875D01*
X130822935Y-129153874D01*
X131017963Y-129087671D01*
X131017968Y-129087669D01*
X131023435Y-129085813D01*
X131213213Y-128979532D01*
X131380446Y-128840446D01*
X131519532Y-128673213D01*
X131592843Y-128542307D01*
X131622989Y-128488478D01*
X131622990Y-128488476D01*
X131625813Y-128483435D01*
X131627669Y-128477968D01*
X131627671Y-128477963D01*
X131692614Y-128286646D01*
X131733451Y-128228569D01*
X131799204Y-128201791D01*
X131868996Y-128214812D01*
X131920669Y-128263499D01*
X131934050Y-128296131D01*
X131959605Y-128396753D01*
X131962022Y-128401996D01*
X132001891Y-128488478D01*
X132050668Y-128594285D01*
X132054001Y-128599001D01*
X132141730Y-128723134D01*
X132176204Y-128771914D01*
X132180346Y-128775949D01*
X132231331Y-128825616D01*
X132332009Y-128923692D01*
X132512863Y-129044536D01*
X132518171Y-129046817D01*
X132518172Y-129046817D01*
X132707409Y-129128119D01*
X132707412Y-129128120D01*
X132712712Y-129130397D01*
X132718342Y-129131671D01*
X132816464Y-129153874D01*
X132924860Y-129178402D01*
X132930631Y-129178629D01*
X132930633Y-129178629D01*
X133003620Y-129181496D01*
X133142205Y-129186941D01*
X133357466Y-129155730D01*
X133362930Y-129153875D01*
X133362935Y-129153874D01*
X133557963Y-129087671D01*
X133557968Y-129087669D01*
X133563435Y-129085813D01*
X133753213Y-128979532D01*
X133920446Y-128840446D01*
X134059532Y-128673213D01*
X134132843Y-128542307D01*
X134162989Y-128488478D01*
X134162990Y-128488476D01*
X134165813Y-128483435D01*
X134167669Y-128477968D01*
X134167671Y-128477963D01*
X134232614Y-128286646D01*
X134273451Y-128228569D01*
X134339204Y-128201791D01*
X134408996Y-128214812D01*
X134460669Y-128263499D01*
X134474050Y-128296131D01*
X134499605Y-128396753D01*
X134502022Y-128401996D01*
X134541891Y-128488478D01*
X134590668Y-128594285D01*
X134594001Y-128599001D01*
X134681730Y-128723134D01*
X134716204Y-128771914D01*
X134720346Y-128775949D01*
X134771331Y-128825616D01*
X134872009Y-128923692D01*
X135052863Y-129044536D01*
X135058171Y-129046817D01*
X135058172Y-129046817D01*
X135247409Y-129128119D01*
X135247412Y-129128120D01*
X135252712Y-129130397D01*
X135258342Y-129131671D01*
X135356464Y-129153874D01*
X135464860Y-129178402D01*
X135470631Y-129178629D01*
X135470633Y-129178629D01*
X135543620Y-129181496D01*
X135682205Y-129186941D01*
X135897466Y-129155730D01*
X135902930Y-129153875D01*
X135902935Y-129153874D01*
X136097963Y-129087671D01*
X136097968Y-129087669D01*
X136103435Y-129085813D01*
X136293213Y-128979532D01*
X136460446Y-128840446D01*
X136599532Y-128673213D01*
X136672843Y-128542307D01*
X136702989Y-128488478D01*
X136702990Y-128488476D01*
X136705813Y-128483435D01*
X136707669Y-128477968D01*
X136707671Y-128477963D01*
X136772614Y-128286646D01*
X136813451Y-128228569D01*
X136879204Y-128201791D01*
X136948996Y-128214812D01*
X137000669Y-128263499D01*
X137014050Y-128296131D01*
X137039605Y-128396753D01*
X137042022Y-128401996D01*
X137081891Y-128488478D01*
X137130668Y-128594285D01*
X137134001Y-128599001D01*
X137221730Y-128723134D01*
X137256204Y-128771914D01*
X137260346Y-128775949D01*
X137311331Y-128825616D01*
X137412009Y-128923692D01*
X137592863Y-129044536D01*
X137598171Y-129046817D01*
X137598172Y-129046817D01*
X137787409Y-129128119D01*
X137787412Y-129128120D01*
X137792712Y-129130397D01*
X137798342Y-129131671D01*
X137896464Y-129153874D01*
X138004860Y-129178402D01*
X138010631Y-129178629D01*
X138010633Y-129178629D01*
X138083620Y-129181496D01*
X138222205Y-129186941D01*
X138437466Y-129155730D01*
X138442930Y-129153875D01*
X138442935Y-129153874D01*
X138637963Y-129087671D01*
X138637968Y-129087669D01*
X138643435Y-129085813D01*
X138833213Y-128979532D01*
X139000446Y-128840446D01*
X139139532Y-128673213D01*
X139212843Y-128542307D01*
X139242989Y-128488478D01*
X139242990Y-128488476D01*
X139245813Y-128483435D01*
X139247669Y-128477968D01*
X139247671Y-128477963D01*
X139312614Y-128286646D01*
X139353451Y-128228569D01*
X139419204Y-128201791D01*
X139488996Y-128214812D01*
X139540669Y-128263499D01*
X139554050Y-128296131D01*
X139579605Y-128396753D01*
X139582022Y-128401996D01*
X139621891Y-128488478D01*
X139670668Y-128594285D01*
X139674001Y-128599001D01*
X139761730Y-128723134D01*
X139796204Y-128771914D01*
X139800346Y-128775949D01*
X139851331Y-128825616D01*
X139952009Y-128923692D01*
X140132863Y-129044536D01*
X140138171Y-129046817D01*
X140138172Y-129046817D01*
X140327409Y-129128119D01*
X140327412Y-129128120D01*
X140332712Y-129130397D01*
X140338342Y-129131671D01*
X140436464Y-129153874D01*
X140544860Y-129178402D01*
X140550631Y-129178629D01*
X140550633Y-129178629D01*
X140623620Y-129181496D01*
X140762205Y-129186941D01*
X140977466Y-129155730D01*
X140982930Y-129153875D01*
X140982935Y-129153874D01*
X141177963Y-129087671D01*
X141177968Y-129087669D01*
X141183435Y-129085813D01*
X141373213Y-128979532D01*
X141540446Y-128840446D01*
X141679532Y-128673213D01*
X141752843Y-128542307D01*
X141782989Y-128488478D01*
X141782990Y-128488476D01*
X141785813Y-128483435D01*
X141787669Y-128477968D01*
X141787671Y-128477963D01*
X141852614Y-128286646D01*
X141893451Y-128228569D01*
X141959204Y-128201791D01*
X142028996Y-128214812D01*
X142080669Y-128263499D01*
X142094050Y-128296131D01*
X142119605Y-128396753D01*
X142122022Y-128401996D01*
X142161891Y-128488478D01*
X142210668Y-128594285D01*
X142214001Y-128599001D01*
X142301730Y-128723134D01*
X142336204Y-128771914D01*
X142340346Y-128775949D01*
X142391331Y-128825616D01*
X142492009Y-128923692D01*
X142672863Y-129044536D01*
X142678171Y-129046817D01*
X142678172Y-129046817D01*
X142867409Y-129128119D01*
X142867412Y-129128120D01*
X142872712Y-129130397D01*
X142878342Y-129131671D01*
X142976464Y-129153874D01*
X143084860Y-129178402D01*
X143090631Y-129178629D01*
X143090633Y-129178629D01*
X143163620Y-129181496D01*
X143302205Y-129186941D01*
X143517466Y-129155730D01*
X143522930Y-129153875D01*
X143522935Y-129153874D01*
X143717963Y-129087671D01*
X143717968Y-129087669D01*
X143723435Y-129085813D01*
X143913213Y-128979532D01*
X144080446Y-128840446D01*
X144219532Y-128673213D01*
X144292843Y-128542307D01*
X144322989Y-128488478D01*
X144322990Y-128488476D01*
X144325813Y-128483435D01*
X144327669Y-128477968D01*
X144327671Y-128477963D01*
X144392614Y-128286646D01*
X144433451Y-128228569D01*
X144499204Y-128201791D01*
X144568996Y-128214812D01*
X144620669Y-128263499D01*
X144634050Y-128296131D01*
X144659605Y-128396753D01*
X144662022Y-128401996D01*
X144701891Y-128488478D01*
X144750668Y-128594285D01*
X144754001Y-128599001D01*
X144841730Y-128723134D01*
X144876204Y-128771914D01*
X144880346Y-128775949D01*
X144931331Y-128825616D01*
X145032009Y-128923692D01*
X145212863Y-129044536D01*
X145218171Y-129046817D01*
X145218172Y-129046817D01*
X145407409Y-129128119D01*
X145407412Y-129128120D01*
X145412712Y-129130397D01*
X145418342Y-129131671D01*
X145516464Y-129153874D01*
X145624860Y-129178402D01*
X145630631Y-129178629D01*
X145630633Y-129178629D01*
X145703620Y-129181496D01*
X145842205Y-129186941D01*
X146057466Y-129155730D01*
X146062930Y-129153875D01*
X146062935Y-129153874D01*
X146257963Y-129087671D01*
X146257968Y-129087669D01*
X146263435Y-129085813D01*
X146453213Y-128979532D01*
X146620446Y-128840446D01*
X146759532Y-128673213D01*
X146832843Y-128542307D01*
X146862989Y-128488478D01*
X146862990Y-128488476D01*
X146865813Y-128483435D01*
X146867669Y-128477968D01*
X146867671Y-128477963D01*
X146932614Y-128286646D01*
X146973451Y-128228569D01*
X147039204Y-128201791D01*
X147108996Y-128214812D01*
X147160669Y-128263499D01*
X147174050Y-128296131D01*
X147199605Y-128396753D01*
X147202022Y-128401996D01*
X147241891Y-128488478D01*
X147290668Y-128594285D01*
X147294001Y-128599001D01*
X147381730Y-128723134D01*
X147416204Y-128771914D01*
X147420346Y-128775949D01*
X147471331Y-128825616D01*
X147572009Y-128923692D01*
X147752863Y-129044536D01*
X147758171Y-129046817D01*
X147758172Y-129046817D01*
X147947409Y-129128119D01*
X147947412Y-129128120D01*
X147952712Y-129130397D01*
X147958342Y-129131671D01*
X148056464Y-129153874D01*
X148164860Y-129178402D01*
X148170631Y-129178629D01*
X148170633Y-129178629D01*
X148243620Y-129181496D01*
X148382205Y-129186941D01*
X148597466Y-129155730D01*
X148602930Y-129153875D01*
X148602935Y-129153874D01*
X148797963Y-129087671D01*
X148797968Y-129087669D01*
X148803435Y-129085813D01*
X148993213Y-128979532D01*
X149160446Y-128840446D01*
X149299532Y-128673213D01*
X149372843Y-128542307D01*
X149402989Y-128488478D01*
X149402990Y-128488476D01*
X149405813Y-128483435D01*
X149431187Y-128408684D01*
X149472024Y-128350609D01*
X149537777Y-128323831D01*
X149607569Y-128336852D01*
X149659243Y-128385539D01*
X149676500Y-128449187D01*
X149676500Y-128723134D01*
X149683255Y-128785316D01*
X149734385Y-128921705D01*
X149821739Y-129038261D01*
X149938295Y-129125615D01*
X150074684Y-129176745D01*
X150136866Y-129183500D01*
X151583134Y-129183500D01*
X151645316Y-129176745D01*
X151781705Y-129125615D01*
X151898261Y-129038261D01*
X151985615Y-128921705D01*
X152036745Y-128785316D01*
X152043500Y-128723134D01*
X152043500Y-127500000D01*
X152361449Y-127500000D01*
X152381622Y-127756326D01*
X152382776Y-127761133D01*
X152382777Y-127761139D01*
X152420796Y-127919498D01*
X152441645Y-128006340D01*
X152443538Y-128010911D01*
X152443539Y-128010913D01*
X152527997Y-128214812D01*
X152540040Y-128243887D01*
X152674384Y-128463116D01*
X152841369Y-128658631D01*
X153036884Y-128825616D01*
X153256113Y-128959960D01*
X153260683Y-128961853D01*
X153260687Y-128961855D01*
X153489087Y-129056461D01*
X153493660Y-129058355D01*
X153580502Y-129079204D01*
X153738861Y-129117223D01*
X153738867Y-129117224D01*
X153743674Y-129118378D01*
X153832965Y-129125405D01*
X153933363Y-129133307D01*
X153933372Y-129133307D01*
X153935820Y-129133500D01*
X154064180Y-129133500D01*
X154066628Y-129133307D01*
X154066637Y-129133307D01*
X154167035Y-129125405D01*
X154256326Y-129118378D01*
X154261133Y-129117224D01*
X154261139Y-129117223D01*
X154419498Y-129079204D01*
X154506340Y-129058355D01*
X154510913Y-129056461D01*
X154739313Y-128961855D01*
X154739317Y-128961853D01*
X154743887Y-128959960D01*
X154963116Y-128825616D01*
X155158631Y-128658631D01*
X155325616Y-128463116D01*
X155459960Y-128243887D01*
X155472004Y-128214812D01*
X155556461Y-128010913D01*
X155556462Y-128010911D01*
X155558355Y-128006340D01*
X155579204Y-127919498D01*
X155617223Y-127761139D01*
X155617224Y-127761133D01*
X155618378Y-127756326D01*
X155638551Y-127500000D01*
X155618378Y-127243674D01*
X155613305Y-127222540D01*
X155569692Y-127040882D01*
X155558355Y-126993660D01*
X155535646Y-126938836D01*
X155461855Y-126760687D01*
X155461853Y-126760683D01*
X155459960Y-126756113D01*
X155325616Y-126536884D01*
X155158631Y-126341369D01*
X154963116Y-126174384D01*
X154743887Y-126040040D01*
X154739317Y-126038147D01*
X154739313Y-126038145D01*
X154510913Y-125943539D01*
X154510911Y-125943538D01*
X154506340Y-125941645D01*
X154419498Y-125920796D01*
X154261139Y-125882777D01*
X154261133Y-125882776D01*
X154256326Y-125881622D01*
X154167035Y-125874595D01*
X154066637Y-125866693D01*
X154066628Y-125866693D01*
X154064180Y-125866500D01*
X153935820Y-125866500D01*
X153933372Y-125866693D01*
X153933363Y-125866693D01*
X153832965Y-125874595D01*
X153743674Y-125881622D01*
X153738867Y-125882776D01*
X153738861Y-125882777D01*
X153580502Y-125920796D01*
X153493660Y-125941645D01*
X153489089Y-125943538D01*
X153489087Y-125943539D01*
X153260687Y-126038145D01*
X153260683Y-126038147D01*
X153256113Y-126040040D01*
X153036884Y-126174384D01*
X152841369Y-126341369D01*
X152674384Y-126536884D01*
X152540040Y-126756113D01*
X152538147Y-126760683D01*
X152538145Y-126760687D01*
X152464354Y-126938836D01*
X152441645Y-126993660D01*
X152430308Y-127040882D01*
X152386696Y-127222540D01*
X152381622Y-127243674D01*
X152361449Y-127500000D01*
X152043500Y-127500000D01*
X152043500Y-127276866D01*
X152036745Y-127214684D01*
X151985615Y-127078295D01*
X151898261Y-126961739D01*
X151781705Y-126874385D01*
X151645316Y-126823255D01*
X151583134Y-126816500D01*
X150136866Y-126816500D01*
X150074684Y-126823255D01*
X149938295Y-126874385D01*
X149821739Y-126961739D01*
X149734385Y-127078295D01*
X149683255Y-127214684D01*
X149676500Y-127276866D01*
X149676500Y-127538825D01*
X149656498Y-127606946D01*
X149602842Y-127653439D01*
X149532568Y-127663543D01*
X149467988Y-127634049D01*
X149432868Y-127583977D01*
X149431195Y-127579619D01*
X149429626Y-127574055D01*
X149333423Y-127378974D01*
X149216609Y-127222540D01*
X149206733Y-127209315D01*
X149206732Y-127209314D01*
X149203280Y-127204691D01*
X149075641Y-127086703D01*
X149047796Y-127060963D01*
X149047793Y-127060961D01*
X149043556Y-127057044D01*
X148859599Y-126940976D01*
X148657572Y-126860376D01*
X148444239Y-126817941D01*
X148438464Y-126817865D01*
X148438460Y-126817865D01*
X148329419Y-126816438D01*
X148226746Y-126815094D01*
X148221049Y-126816073D01*
X148221048Y-126816073D01*
X148018065Y-126850952D01*
X148018062Y-126850953D01*
X148012375Y-126851930D01*
X147808307Y-126927214D01*
X147621376Y-127038427D01*
X147457842Y-127181842D01*
X147323181Y-127352658D01*
X147221905Y-127545154D01*
X147220192Y-127550671D01*
X147169647Y-127713449D01*
X147130344Y-127772574D01*
X147065315Y-127801064D01*
X146995205Y-127789874D01*
X146942276Y-127742556D01*
X146928049Y-127710295D01*
X146889626Y-127574055D01*
X146793423Y-127378974D01*
X146676609Y-127222540D01*
X146666733Y-127209315D01*
X146666732Y-127209314D01*
X146663280Y-127204691D01*
X146535641Y-127086703D01*
X146507796Y-127060963D01*
X146507793Y-127060961D01*
X146503556Y-127057044D01*
X146319599Y-126940976D01*
X146117572Y-126860376D01*
X145904239Y-126817941D01*
X145898464Y-126817865D01*
X145898460Y-126817865D01*
X145789419Y-126816438D01*
X145686746Y-126815094D01*
X145681049Y-126816073D01*
X145681048Y-126816073D01*
X145478065Y-126850952D01*
X145478062Y-126850953D01*
X145472375Y-126851930D01*
X145268307Y-126927214D01*
X145081376Y-127038427D01*
X144917842Y-127181842D01*
X144783181Y-127352658D01*
X144681905Y-127545154D01*
X144680192Y-127550671D01*
X144629647Y-127713449D01*
X144590344Y-127772574D01*
X144525315Y-127801064D01*
X144455205Y-127789874D01*
X144402276Y-127742556D01*
X144388049Y-127710295D01*
X144349626Y-127574055D01*
X144253423Y-127378974D01*
X144136609Y-127222540D01*
X144126733Y-127209315D01*
X144126732Y-127209314D01*
X144123280Y-127204691D01*
X143995641Y-127086703D01*
X143967796Y-127060963D01*
X143967793Y-127060961D01*
X143963556Y-127057044D01*
X143779599Y-126940976D01*
X143577572Y-126860376D01*
X143364239Y-126817941D01*
X143358464Y-126817865D01*
X143358460Y-126817865D01*
X143249419Y-126816438D01*
X143146746Y-126815094D01*
X143141049Y-126816073D01*
X143141048Y-126816073D01*
X142938065Y-126850952D01*
X142938062Y-126850953D01*
X142932375Y-126851930D01*
X142728307Y-126927214D01*
X142541376Y-127038427D01*
X142377842Y-127181842D01*
X142243181Y-127352658D01*
X142141905Y-127545154D01*
X142140192Y-127550671D01*
X142089647Y-127713449D01*
X142050344Y-127772574D01*
X141985315Y-127801064D01*
X141915205Y-127789874D01*
X141862276Y-127742556D01*
X141848049Y-127710295D01*
X141809626Y-127574055D01*
X141713423Y-127378974D01*
X141596609Y-127222540D01*
X141586733Y-127209315D01*
X141586732Y-127209314D01*
X141583280Y-127204691D01*
X141455641Y-127086703D01*
X141427796Y-127060963D01*
X141427793Y-127060961D01*
X141423556Y-127057044D01*
X141239599Y-126940976D01*
X141037572Y-126860376D01*
X140824239Y-126817941D01*
X140818464Y-126817865D01*
X140818460Y-126817865D01*
X140709419Y-126816438D01*
X140606746Y-126815094D01*
X140601049Y-126816073D01*
X140601048Y-126816073D01*
X140398065Y-126850952D01*
X140398062Y-126850953D01*
X140392375Y-126851930D01*
X140188307Y-126927214D01*
X140001376Y-127038427D01*
X139837842Y-127181842D01*
X139703181Y-127352658D01*
X139601905Y-127545154D01*
X139600192Y-127550671D01*
X139549647Y-127713449D01*
X139510344Y-127772574D01*
X139445315Y-127801064D01*
X139375205Y-127789874D01*
X139322276Y-127742556D01*
X139308049Y-127710295D01*
X139269626Y-127574055D01*
X139173423Y-127378974D01*
X139056609Y-127222540D01*
X139046733Y-127209315D01*
X139046732Y-127209314D01*
X139043280Y-127204691D01*
X138915641Y-127086703D01*
X138887796Y-127060963D01*
X138887793Y-127060961D01*
X138883556Y-127057044D01*
X138699599Y-126940976D01*
X138497572Y-126860376D01*
X138284239Y-126817941D01*
X138278464Y-126817865D01*
X138278460Y-126817865D01*
X138169419Y-126816438D01*
X138066746Y-126815094D01*
X138061049Y-126816073D01*
X138061048Y-126816073D01*
X137858065Y-126850952D01*
X137858062Y-126850953D01*
X137852375Y-126851930D01*
X137648307Y-126927214D01*
X137461376Y-127038427D01*
X137297842Y-127181842D01*
X137163181Y-127352658D01*
X137061905Y-127545154D01*
X137060192Y-127550671D01*
X137009647Y-127713449D01*
X136970344Y-127772574D01*
X136905315Y-127801064D01*
X136835205Y-127789874D01*
X136782276Y-127742556D01*
X136768049Y-127710295D01*
X136729626Y-127574055D01*
X136633423Y-127378974D01*
X136516609Y-127222540D01*
X136506733Y-127209315D01*
X136506732Y-127209314D01*
X136503280Y-127204691D01*
X136375641Y-127086703D01*
X136347796Y-127060963D01*
X136347793Y-127060961D01*
X136343556Y-127057044D01*
X136159599Y-126940976D01*
X135957572Y-126860376D01*
X135744239Y-126817941D01*
X135738464Y-126817865D01*
X135738460Y-126817865D01*
X135629419Y-126816438D01*
X135526746Y-126815094D01*
X135521049Y-126816073D01*
X135521048Y-126816073D01*
X135318065Y-126850952D01*
X135318062Y-126850953D01*
X135312375Y-126851930D01*
X135108307Y-126927214D01*
X134921376Y-127038427D01*
X134757842Y-127181842D01*
X134623181Y-127352658D01*
X134521905Y-127545154D01*
X134520192Y-127550671D01*
X134469647Y-127713449D01*
X134430344Y-127772574D01*
X134365315Y-127801064D01*
X134295205Y-127789874D01*
X134242276Y-127742556D01*
X134228049Y-127710295D01*
X134189626Y-127574055D01*
X134093423Y-127378974D01*
X133976609Y-127222540D01*
X133966733Y-127209315D01*
X133966732Y-127209314D01*
X133963280Y-127204691D01*
X133835641Y-127086703D01*
X133807796Y-127060963D01*
X133807793Y-127060961D01*
X133803556Y-127057044D01*
X133619599Y-126940976D01*
X133417572Y-126860376D01*
X133204239Y-126817941D01*
X133198464Y-126817865D01*
X133198460Y-126817865D01*
X133089419Y-126816438D01*
X132986746Y-126815094D01*
X132981049Y-126816073D01*
X132981048Y-126816073D01*
X132778065Y-126850952D01*
X132778062Y-126850953D01*
X132772375Y-126851930D01*
X132568307Y-126927214D01*
X132381376Y-127038427D01*
X132217842Y-127181842D01*
X132083181Y-127352658D01*
X131981905Y-127545154D01*
X131980192Y-127550671D01*
X131929647Y-127713449D01*
X131890344Y-127772574D01*
X131825315Y-127801064D01*
X131755205Y-127789874D01*
X131702276Y-127742556D01*
X131688049Y-127710295D01*
X131649626Y-127574055D01*
X131553423Y-127378974D01*
X131436609Y-127222540D01*
X131426733Y-127209315D01*
X131426732Y-127209314D01*
X131423280Y-127204691D01*
X131295641Y-127086703D01*
X131267796Y-127060963D01*
X131267793Y-127060961D01*
X131263556Y-127057044D01*
X131079599Y-126940976D01*
X130877572Y-126860376D01*
X130664239Y-126817941D01*
X130658464Y-126817865D01*
X130658460Y-126817865D01*
X130549419Y-126816438D01*
X130446746Y-126815094D01*
X130441049Y-126816073D01*
X130441048Y-126816073D01*
X130238065Y-126850952D01*
X130238062Y-126850953D01*
X130232375Y-126851930D01*
X130028307Y-126927214D01*
X129841376Y-127038427D01*
X129677842Y-127181842D01*
X129543181Y-127352658D01*
X129441905Y-127545154D01*
X129440192Y-127550671D01*
X129389647Y-127713449D01*
X129350344Y-127772574D01*
X129285315Y-127801064D01*
X129215205Y-127789874D01*
X129162276Y-127742556D01*
X129148049Y-127710295D01*
X129109626Y-127574055D01*
X129013423Y-127378974D01*
X128896609Y-127222540D01*
X128886733Y-127209315D01*
X128886732Y-127209314D01*
X128883280Y-127204691D01*
X128755641Y-127086703D01*
X128727796Y-127060963D01*
X128727793Y-127060961D01*
X128723556Y-127057044D01*
X128539599Y-126940976D01*
X128337572Y-126860376D01*
X128124239Y-126817941D01*
X128118464Y-126817865D01*
X128118460Y-126817865D01*
X128009419Y-126816438D01*
X127906746Y-126815094D01*
X127901049Y-126816073D01*
X127901048Y-126816073D01*
X127698065Y-126850952D01*
X127698062Y-126850953D01*
X127692375Y-126851930D01*
X127488307Y-126927214D01*
X127301376Y-127038427D01*
X127137842Y-127181842D01*
X127003181Y-127352658D01*
X126901905Y-127545154D01*
X126900192Y-127550671D01*
X126849647Y-127713449D01*
X126810344Y-127772574D01*
X126745315Y-127801064D01*
X126675205Y-127789874D01*
X126622276Y-127742556D01*
X126608049Y-127710295D01*
X126569626Y-127574055D01*
X126473423Y-127378974D01*
X126356609Y-127222540D01*
X126346733Y-127209315D01*
X126346732Y-127209314D01*
X126343280Y-127204691D01*
X126215641Y-127086703D01*
X126187796Y-127060963D01*
X126187793Y-127060961D01*
X126183556Y-127057044D01*
X125999599Y-126940976D01*
X125797572Y-126860376D01*
X125584239Y-126817941D01*
X125578464Y-126817865D01*
X125578460Y-126817865D01*
X125469419Y-126816438D01*
X125366746Y-126815094D01*
X125361049Y-126816073D01*
X125361048Y-126816073D01*
X125158065Y-126850952D01*
X125158062Y-126850953D01*
X125152375Y-126851930D01*
X124948307Y-126927214D01*
X124761376Y-127038427D01*
X124597842Y-127181842D01*
X124463181Y-127352658D01*
X124361905Y-127545154D01*
X124360192Y-127550671D01*
X124309647Y-127713449D01*
X124270344Y-127772574D01*
X124205315Y-127801064D01*
X124135205Y-127789874D01*
X124082276Y-127742556D01*
X124068049Y-127710295D01*
X124029626Y-127574055D01*
X123933423Y-127378974D01*
X123816609Y-127222540D01*
X123806733Y-127209315D01*
X123806732Y-127209314D01*
X123803280Y-127204691D01*
X123675641Y-127086703D01*
X123647796Y-127060963D01*
X123647793Y-127060961D01*
X123643556Y-127057044D01*
X123459599Y-126940976D01*
X123257572Y-126860376D01*
X123044239Y-126817941D01*
X123038464Y-126817865D01*
X123038460Y-126817865D01*
X122929419Y-126816438D01*
X122826746Y-126815094D01*
X122821049Y-126816073D01*
X122821048Y-126816073D01*
X122618065Y-126850952D01*
X122618062Y-126850953D01*
X122612375Y-126851930D01*
X122408307Y-126927214D01*
X122221376Y-127038427D01*
X122057842Y-127181842D01*
X121923181Y-127352658D01*
X121821905Y-127545154D01*
X121820192Y-127550671D01*
X121769647Y-127713449D01*
X121730344Y-127772574D01*
X121665315Y-127801064D01*
X121595205Y-127789874D01*
X121542276Y-127742556D01*
X121528049Y-127710295D01*
X121489626Y-127574055D01*
X121393423Y-127378974D01*
X121276609Y-127222540D01*
X121266733Y-127209315D01*
X121266732Y-127209314D01*
X121263280Y-127204691D01*
X121135641Y-127086703D01*
X121107796Y-127060963D01*
X121107793Y-127060961D01*
X121103556Y-127057044D01*
X120919599Y-126940976D01*
X120717572Y-126860376D01*
X120504239Y-126817941D01*
X120498464Y-126817865D01*
X120498460Y-126817865D01*
X120389419Y-126816438D01*
X120286746Y-126815094D01*
X120281049Y-126816073D01*
X120281048Y-126816073D01*
X120078065Y-126850952D01*
X120078062Y-126850953D01*
X120072375Y-126851930D01*
X119868307Y-126927214D01*
X119681376Y-127038427D01*
X119517842Y-127181842D01*
X119383181Y-127352658D01*
X119281905Y-127545154D01*
X119280192Y-127550671D01*
X119229647Y-127713449D01*
X119190344Y-127772574D01*
X119125315Y-127801064D01*
X119055205Y-127789874D01*
X119002276Y-127742556D01*
X118988049Y-127710295D01*
X118949626Y-127574055D01*
X118853423Y-127378974D01*
X118736609Y-127222540D01*
X118726733Y-127209315D01*
X118726732Y-127209314D01*
X118723280Y-127204691D01*
X118595641Y-127086703D01*
X118567796Y-127060963D01*
X118567793Y-127060961D01*
X118563556Y-127057044D01*
X118379599Y-126940976D01*
X118177572Y-126860376D01*
X117964239Y-126817941D01*
X117958464Y-126817865D01*
X117958460Y-126817865D01*
X117849419Y-126816438D01*
X117746746Y-126815094D01*
X117741049Y-126816073D01*
X117741048Y-126816073D01*
X117538065Y-126850952D01*
X117538062Y-126850953D01*
X117532375Y-126851930D01*
X117328307Y-126927214D01*
X117141376Y-127038427D01*
X116977842Y-127181842D01*
X116843181Y-127352658D01*
X116741905Y-127545154D01*
X116740192Y-127550671D01*
X116689647Y-127713449D01*
X116650344Y-127772574D01*
X116585315Y-127801064D01*
X116515205Y-127789874D01*
X116462276Y-127742556D01*
X116448049Y-127710295D01*
X116409626Y-127574055D01*
X116313423Y-127378974D01*
X116196609Y-127222540D01*
X116186733Y-127209315D01*
X116186732Y-127209314D01*
X116183280Y-127204691D01*
X116055641Y-127086703D01*
X116027796Y-127060963D01*
X116027793Y-127060961D01*
X116023556Y-127057044D01*
X116018673Y-127053963D01*
X116018669Y-127053960D01*
X116017269Y-127053077D01*
X116016749Y-127052487D01*
X116014089Y-127050446D01*
X116014490Y-127049924D01*
X115970328Y-126999812D01*
X115958500Y-126946513D01*
X115958500Y-122632703D01*
X147890743Y-122632703D01*
X147928268Y-122917734D01*
X148004129Y-123195036D01*
X148116923Y-123459476D01*
X148264561Y-123706161D01*
X148444313Y-123930528D01*
X148652851Y-124128423D01*
X148886317Y-124296186D01*
X148890112Y-124298195D01*
X148890113Y-124298196D01*
X148911869Y-124309715D01*
X149140392Y-124430712D01*
X149410373Y-124529511D01*
X149691264Y-124590755D01*
X149719841Y-124593004D01*
X149914282Y-124608307D01*
X149914291Y-124608307D01*
X149916739Y-124608500D01*
X150072271Y-124608500D01*
X150074407Y-124608354D01*
X150074418Y-124608354D01*
X150282548Y-124594165D01*
X150282554Y-124594164D01*
X150286825Y-124593873D01*
X150291020Y-124593004D01*
X150291022Y-124593004D01*
X150427584Y-124564723D01*
X150568342Y-124535574D01*
X150839343Y-124439607D01*
X151094812Y-124307750D01*
X151098313Y-124305289D01*
X151098317Y-124305287D01*
X151212418Y-124225095D01*
X151330023Y-124142441D01*
X151540622Y-123946740D01*
X151722713Y-123724268D01*
X151872927Y-123479142D01*
X151988483Y-123215898D01*
X152067244Y-122939406D01*
X152107751Y-122654784D01*
X152107819Y-122641991D01*
X152109235Y-122371583D01*
X152109235Y-122371576D01*
X152109257Y-122367297D01*
X152106441Y-122345903D01*
X152072292Y-122086522D01*
X152071732Y-122082266D01*
X151995871Y-121804964D01*
X151883077Y-121540524D01*
X151783858Y-121374741D01*
X151737643Y-121297521D01*
X151737640Y-121297517D01*
X151735439Y-121293839D01*
X151555687Y-121069472D01*
X151482479Y-121000000D01*
X162336372Y-121000000D01*
X162356854Y-121260249D01*
X162358008Y-121265056D01*
X162358009Y-121265062D01*
X162392319Y-121407969D01*
X162417796Y-121514089D01*
X162419689Y-121518660D01*
X162419690Y-121518662D01*
X162497632Y-121706829D01*
X162517697Y-121755271D01*
X162654097Y-121977856D01*
X162823637Y-122176363D01*
X163022144Y-122345903D01*
X163244729Y-122482303D01*
X163249299Y-122484196D01*
X163249303Y-122484198D01*
X163481338Y-122580310D01*
X163485911Y-122582204D01*
X163574931Y-122603576D01*
X163734938Y-122641991D01*
X163734944Y-122641992D01*
X163739751Y-122643146D01*
X163830884Y-122650318D01*
X163932385Y-122658307D01*
X163932394Y-122658307D01*
X163934842Y-122658500D01*
X164065158Y-122658500D01*
X164067606Y-122658307D01*
X164067615Y-122658307D01*
X164169116Y-122650318D01*
X164260249Y-122643146D01*
X164265056Y-122641992D01*
X164265062Y-122641991D01*
X164425069Y-122603576D01*
X164514089Y-122582204D01*
X164518662Y-122580310D01*
X164750697Y-122484198D01*
X164750701Y-122484196D01*
X164755271Y-122482303D01*
X164977856Y-122345903D01*
X165176363Y-122176363D01*
X165345903Y-121977856D01*
X165482303Y-121755271D01*
X165502369Y-121706829D01*
X165580310Y-121518662D01*
X165580311Y-121518660D01*
X165582204Y-121514089D01*
X165607681Y-121407969D01*
X165641991Y-121265062D01*
X165641992Y-121265056D01*
X165643146Y-121260249D01*
X165663628Y-121000000D01*
X165643146Y-120739751D01*
X165641992Y-120734944D01*
X165641991Y-120734938D01*
X165583359Y-120490723D01*
X165582204Y-120485911D01*
X165575816Y-120470489D01*
X165484198Y-120249303D01*
X165484196Y-120249299D01*
X165482303Y-120244729D01*
X165345903Y-120022144D01*
X165176363Y-119823637D01*
X164977856Y-119654097D01*
X164755271Y-119517697D01*
X164750701Y-119515804D01*
X164750697Y-119515802D01*
X164518662Y-119419690D01*
X164518660Y-119419689D01*
X164514089Y-119417796D01*
X164425069Y-119396424D01*
X164265062Y-119358009D01*
X164265056Y-119358008D01*
X164260249Y-119356854D01*
X164169116Y-119349682D01*
X164067615Y-119341693D01*
X164067606Y-119341693D01*
X164065158Y-119341500D01*
X163934842Y-119341500D01*
X163932394Y-119341693D01*
X163932385Y-119341693D01*
X163830884Y-119349682D01*
X163739751Y-119356854D01*
X163734944Y-119358008D01*
X163734938Y-119358009D01*
X163574931Y-119396424D01*
X163485911Y-119417796D01*
X163481340Y-119419689D01*
X163481338Y-119419690D01*
X163249303Y-119515802D01*
X163249299Y-119515804D01*
X163244729Y-119517697D01*
X163022144Y-119654097D01*
X162823637Y-119823637D01*
X162654097Y-120022144D01*
X162517697Y-120244729D01*
X162515804Y-120249299D01*
X162515802Y-120249303D01*
X162424184Y-120470489D01*
X162417796Y-120485911D01*
X162416641Y-120490723D01*
X162358009Y-120734938D01*
X162358008Y-120734944D01*
X162356854Y-120739751D01*
X162336372Y-121000000D01*
X151482479Y-121000000D01*
X151413282Y-120934335D01*
X151350258Y-120874527D01*
X151350255Y-120874525D01*
X151347149Y-120871577D01*
X151113683Y-120703814D01*
X151091843Y-120692250D01*
X151068654Y-120679972D01*
X150859608Y-120569288D01*
X150631770Y-120485911D01*
X150593658Y-120471964D01*
X150593656Y-120471963D01*
X150589627Y-120470489D01*
X150308736Y-120409245D01*
X150277685Y-120406801D01*
X150085718Y-120391693D01*
X150085709Y-120391693D01*
X150083261Y-120391500D01*
X149927729Y-120391500D01*
X149925593Y-120391646D01*
X149925582Y-120391646D01*
X149717452Y-120405835D01*
X149717446Y-120405836D01*
X149713175Y-120406127D01*
X149708980Y-120406996D01*
X149708978Y-120406996D01*
X149572417Y-120435276D01*
X149431658Y-120464426D01*
X149160657Y-120560393D01*
X148905188Y-120692250D01*
X148901687Y-120694711D01*
X148901683Y-120694713D01*
X148787583Y-120774904D01*
X148669977Y-120857559D01*
X148654892Y-120871577D01*
X148498615Y-121016799D01*
X148459378Y-121053260D01*
X148277287Y-121275732D01*
X148127073Y-121520858D01*
X148011517Y-121784102D01*
X147932756Y-122060594D01*
X147892249Y-122345216D01*
X147892227Y-122349505D01*
X147892226Y-122349512D01*
X147891001Y-122583359D01*
X147890743Y-122632703D01*
X115958500Y-122632703D01*
X115958500Y-121774950D01*
X115978502Y-121706829D01*
X115995405Y-121685855D01*
X125485855Y-112195405D01*
X125548167Y-112161379D01*
X125574950Y-112158500D01*
X160484045Y-112158500D01*
X160552166Y-112178502D01*
X160598659Y-112232158D01*
X160608763Y-112302432D01*
X160584871Y-112360065D01*
X160505214Y-112466351D01*
X160496676Y-112481946D01*
X160451522Y-112602394D01*
X160447895Y-112617649D01*
X160442369Y-112668514D01*
X160442000Y-112675328D01*
X160442000Y-113197885D01*
X160446475Y-113213124D01*
X160447865Y-113214329D01*
X160455548Y-113216000D01*
X162939884Y-113216000D01*
X162955123Y-113211525D01*
X162956328Y-113210135D01*
X162957999Y-113202452D01*
X162957999Y-112675331D01*
X162957629Y-112668510D01*
X162952105Y-112617648D01*
X162948479Y-112602396D01*
X162903324Y-112481946D01*
X162894786Y-112466351D01*
X162815129Y-112360065D01*
X162790281Y-112293558D01*
X162805334Y-112224176D01*
X162855508Y-112173946D01*
X162915955Y-112158500D01*
X163675050Y-112158500D01*
X163743171Y-112178502D01*
X163764145Y-112195405D01*
X164054595Y-112485855D01*
X164088621Y-112548167D01*
X164091500Y-112574950D01*
X164091500Y-113675051D01*
X164071498Y-113743172D01*
X164054595Y-113764146D01*
X163004145Y-114814595D01*
X162941833Y-114848621D01*
X162915050Y-114851500D01*
X162840849Y-114851500D01*
X162772728Y-114831498D01*
X162737631Y-114797763D01*
X162734839Y-114793775D01*
X162712156Y-114726500D01*
X162729446Y-114657640D01*
X162762492Y-114620686D01*
X162805723Y-114588286D01*
X162818285Y-114575724D01*
X162894786Y-114473649D01*
X162903324Y-114458054D01*
X162948478Y-114337606D01*
X162952105Y-114322351D01*
X162957631Y-114271486D01*
X162958000Y-114264672D01*
X162958000Y-113742115D01*
X162953525Y-113726876D01*
X162952135Y-113725671D01*
X162944452Y-113724000D01*
X160460116Y-113724000D01*
X160444877Y-113728475D01*
X160443672Y-113729865D01*
X160439122Y-113750783D01*
X160435303Y-113749952D01*
X160421999Y-113795260D01*
X160368343Y-113841753D01*
X160298069Y-113851857D01*
X160233489Y-113822363D01*
X160212788Y-113799410D01*
X160130908Y-113682473D01*
X160130906Y-113682470D01*
X160127749Y-113677962D01*
X159972038Y-113522251D01*
X159791654Y-113395944D01*
X159592076Y-113302880D01*
X159379371Y-113245885D01*
X159160000Y-113226693D01*
X158940629Y-113245885D01*
X158727924Y-113302880D01*
X158634562Y-113346415D01*
X158533334Y-113393618D01*
X158533329Y-113393621D01*
X158528347Y-113395944D01*
X158523840Y-113399100D01*
X158523838Y-113399101D01*
X158352473Y-113519092D01*
X158352470Y-113519094D01*
X158347962Y-113522251D01*
X158192251Y-113677962D01*
X158189094Y-113682470D01*
X158189092Y-113682473D01*
X158146590Y-113743172D01*
X158065944Y-113858347D01*
X158063621Y-113863329D01*
X158063618Y-113863334D01*
X158017141Y-113963006D01*
X157972880Y-114057924D01*
X157915885Y-114270629D01*
X157896693Y-114490000D01*
X157915885Y-114709371D01*
X157972880Y-114922076D01*
X157975205Y-114927061D01*
X158063618Y-115116666D01*
X158063621Y-115116671D01*
X158065944Y-115121653D01*
X158069100Y-115126160D01*
X158069101Y-115126162D01*
X158180537Y-115285308D01*
X158192251Y-115302038D01*
X158311118Y-115420905D01*
X158345144Y-115483217D01*
X158340079Y-115554032D01*
X158311118Y-115599095D01*
X158192251Y-115717962D01*
X158189094Y-115722470D01*
X158189092Y-115722473D01*
X158148969Y-115779775D01*
X158065944Y-115898347D01*
X158063621Y-115903329D01*
X158063618Y-115903334D01*
X158019242Y-115998501D01*
X157972880Y-116097924D01*
X157915885Y-116310629D01*
X157896693Y-116530000D01*
X157915885Y-116749371D01*
X157972880Y-116962076D01*
X157975205Y-116967061D01*
X158063618Y-117156666D01*
X158063621Y-117156671D01*
X158065944Y-117161653D01*
X158192251Y-117342038D01*
X158347962Y-117497749D01*
X158528346Y-117624056D01*
X158727924Y-117717120D01*
X158940629Y-117774115D01*
X159160000Y-117793307D01*
X159379371Y-117774115D01*
X159592076Y-117717120D01*
X159791654Y-117624056D01*
X159972038Y-117497749D01*
X160127749Y-117342038D01*
X160254056Y-117161653D01*
X160256379Y-117156671D01*
X160256382Y-117156666D01*
X160344795Y-116967061D01*
X160347120Y-116962076D01*
X160404115Y-116749371D01*
X160423307Y-116530000D01*
X160404115Y-116310629D01*
X160402691Y-116305317D01*
X160402690Y-116305308D01*
X160390610Y-116260225D01*
X160392299Y-116189248D01*
X160432093Y-116130452D01*
X160497357Y-116102504D01*
X160567370Y-116114277D01*
X160615529Y-116155342D01*
X160720537Y-116305308D01*
X160732251Y-116322038D01*
X160887962Y-116477749D01*
X161068346Y-116604056D01*
X161267924Y-116697120D01*
X161480629Y-116754115D01*
X161700000Y-116773307D01*
X161919371Y-116754115D01*
X162132076Y-116697120D01*
X162331654Y-116604056D01*
X162512038Y-116477749D01*
X162667749Y-116322038D01*
X162737637Y-116222228D01*
X162793093Y-116177901D01*
X162840849Y-116168500D01*
X163157944Y-116168500D01*
X163169800Y-116169059D01*
X163169803Y-116169059D01*
X163177537Y-116170788D01*
X163248369Y-116168562D01*
X163252327Y-116168500D01*
X163281432Y-116168500D01*
X163285832Y-116167944D01*
X163297664Y-116167012D01*
X163343831Y-116165562D01*
X163364421Y-116159580D01*
X163383782Y-116155570D01*
X163390770Y-116154688D01*
X163397204Y-116153875D01*
X163397205Y-116153875D01*
X163405064Y-116152882D01*
X163412429Y-116149966D01*
X163412433Y-116149965D01*
X163448021Y-116135874D01*
X163459231Y-116132035D01*
X163503600Y-116119145D01*
X163522065Y-116108225D01*
X163539805Y-116099534D01*
X163559756Y-116091635D01*
X163597129Y-116064482D01*
X163607048Y-116057967D01*
X163639977Y-116038493D01*
X163639981Y-116038490D01*
X163646807Y-116034453D01*
X163661971Y-116019289D01*
X163677005Y-116006448D01*
X163687943Y-115998501D01*
X163694357Y-115993841D01*
X163723803Y-115958247D01*
X163731792Y-115949468D01*
X165157599Y-114523660D01*
X165166380Y-114515670D01*
X165166391Y-114515661D01*
X165173080Y-114511416D01*
X165221621Y-114459726D01*
X165224343Y-114456917D01*
X165244926Y-114436333D01*
X165247638Y-114432837D01*
X165255349Y-114423808D01*
X165281544Y-114395913D01*
X165286972Y-114390133D01*
X165297301Y-114371345D01*
X165308158Y-114354816D01*
X165316447Y-114344131D01*
X165316448Y-114344129D01*
X165321304Y-114337869D01*
X165339657Y-114295456D01*
X165344868Y-114284819D01*
X165367124Y-114244337D01*
X165372457Y-114223566D01*
X165378859Y-114204864D01*
X165387379Y-114185177D01*
X165394605Y-114139552D01*
X165397013Y-114127926D01*
X165406529Y-114090865D01*
X165406529Y-114090864D01*
X165408500Y-114083188D01*
X165408500Y-114061742D01*
X165410051Y-114042031D01*
X165412166Y-114028678D01*
X165413406Y-114020849D01*
X165409059Y-113974864D01*
X165408500Y-113963006D01*
X165408500Y-112332056D01*
X165409059Y-112320200D01*
X165409059Y-112320197D01*
X165410788Y-112312463D01*
X165408562Y-112241631D01*
X165408500Y-112237673D01*
X165408500Y-112208568D01*
X165407944Y-112204168D01*
X165407012Y-112192330D01*
X165405811Y-112154094D01*
X165405562Y-112146169D01*
X165399580Y-112125579D01*
X165395570Y-112106216D01*
X165393875Y-112092796D01*
X165393875Y-112092795D01*
X165392882Y-112084936D01*
X165389966Y-112077571D01*
X165389965Y-112077567D01*
X165375874Y-112041979D01*
X165372035Y-112030769D01*
X165359145Y-111986400D01*
X165348229Y-111967943D01*
X165339534Y-111950193D01*
X165331635Y-111930244D01*
X165304477Y-111892864D01*
X165297960Y-111882943D01*
X165274452Y-111843193D01*
X165259291Y-111828032D01*
X165246449Y-111812997D01*
X165233841Y-111795643D01*
X165198248Y-111766198D01*
X165189467Y-111758208D01*
X164523651Y-111092391D01*
X164515663Y-111083612D01*
X164511416Y-111076920D01*
X164459741Y-111028394D01*
X164456900Y-111025640D01*
X164436333Y-111005073D01*
X164432826Y-111002353D01*
X164423804Y-110994647D01*
X164419613Y-110990711D01*
X164390133Y-110963028D01*
X164383181Y-110959206D01*
X164371342Y-110952697D01*
X164354818Y-110941843D01*
X164344132Y-110933555D01*
X164337868Y-110928696D01*
X164330596Y-110925549D01*
X164330594Y-110925548D01*
X164295465Y-110910346D01*
X164284805Y-110905124D01*
X164251282Y-110886694D01*
X164251281Y-110886694D01*
X164244337Y-110882876D01*
X164240580Y-110881911D01*
X164186027Y-110839346D01*
X164162551Y-110772344D01*
X164179025Y-110703285D01*
X164230220Y-110654096D01*
X164260482Y-110644115D01*
X164260249Y-110643146D01*
X164321949Y-110628333D01*
X164514089Y-110582204D01*
X164518662Y-110580310D01*
X164750697Y-110484198D01*
X164750701Y-110484196D01*
X164755271Y-110482303D01*
X164977856Y-110345903D01*
X165176363Y-110176363D01*
X165345903Y-109977856D01*
X165482303Y-109755271D01*
X165549036Y-109594165D01*
X165580310Y-109518662D01*
X165580311Y-109518660D01*
X165582204Y-109514089D01*
X165603576Y-109425069D01*
X165641991Y-109265062D01*
X165641992Y-109265056D01*
X165643146Y-109260249D01*
X165663628Y-109000000D01*
X165643146Y-108739751D01*
X165641992Y-108734944D01*
X165641991Y-108734938D01*
X165583359Y-108490723D01*
X165582204Y-108485911D01*
X165577771Y-108475208D01*
X165484198Y-108249303D01*
X165484196Y-108249299D01*
X165482303Y-108244729D01*
X165345903Y-108022144D01*
X165176363Y-107823637D01*
X164977856Y-107654097D01*
X164755271Y-107517697D01*
X164750701Y-107515804D01*
X164750697Y-107515802D01*
X164518662Y-107419690D01*
X164518660Y-107419689D01*
X164514089Y-107417796D01*
X164425069Y-107396424D01*
X164265062Y-107358009D01*
X164265056Y-107358008D01*
X164260249Y-107356854D01*
X164166960Y-107349512D01*
X164067615Y-107341693D01*
X164067606Y-107341693D01*
X164065158Y-107341500D01*
X163934842Y-107341500D01*
X163932394Y-107341693D01*
X163932385Y-107341693D01*
X163833040Y-107349512D01*
X163739751Y-107356854D01*
X163734944Y-107358008D01*
X163734938Y-107358009D01*
X163574931Y-107396424D01*
X163485911Y-107417796D01*
X163481340Y-107419689D01*
X163481338Y-107419690D01*
X163249303Y-107515802D01*
X163249299Y-107515804D01*
X163244729Y-107517697D01*
X163022144Y-107654097D01*
X162823637Y-107823637D01*
X162654097Y-108022144D01*
X162517697Y-108244729D01*
X162515804Y-108249299D01*
X162515802Y-108249303D01*
X162422229Y-108475208D01*
X162417796Y-108485911D01*
X162416641Y-108490723D01*
X162358009Y-108734938D01*
X162358008Y-108734944D01*
X162356854Y-108739751D01*
X162336372Y-109000000D01*
X162356854Y-109260249D01*
X162358008Y-109265056D01*
X162358009Y-109265062D01*
X162396424Y-109425069D01*
X162417796Y-109514089D01*
X162419689Y-109518660D01*
X162419690Y-109518662D01*
X162450965Y-109594165D01*
X162517697Y-109755271D01*
X162654097Y-109977856D01*
X162823637Y-110176363D01*
X163022144Y-110345903D01*
X163244729Y-110482303D01*
X163249299Y-110484196D01*
X163249303Y-110484198D01*
X163481338Y-110580310D01*
X163485911Y-110582204D01*
X163526451Y-110591937D01*
X163530800Y-110592981D01*
X163592369Y-110628333D01*
X163625052Y-110691360D01*
X163618471Y-110762051D01*
X163574717Y-110817962D01*
X163501386Y-110841500D01*
X125332056Y-110841500D01*
X125320200Y-110840941D01*
X125320197Y-110840941D01*
X125312463Y-110839212D01*
X125257446Y-110840941D01*
X125241631Y-110841438D01*
X125237673Y-110841500D01*
X125208568Y-110841500D01*
X125204168Y-110842056D01*
X125192336Y-110842988D01*
X125146169Y-110844438D01*
X125125579Y-110850420D01*
X125106218Y-110854430D01*
X125099230Y-110855312D01*
X125092796Y-110856125D01*
X125092795Y-110856125D01*
X125084936Y-110857118D01*
X125077571Y-110860034D01*
X125077567Y-110860035D01*
X125041979Y-110874126D01*
X125030769Y-110877965D01*
X124986400Y-110890855D01*
X124967935Y-110901775D01*
X124950195Y-110910466D01*
X124930244Y-110918365D01*
X124892874Y-110945516D01*
X124882952Y-110952033D01*
X124850023Y-110971507D01*
X124850019Y-110971510D01*
X124843193Y-110975547D01*
X124828029Y-110990711D01*
X124812996Y-111003551D01*
X124795643Y-111016159D01*
X124785521Y-111028395D01*
X124766198Y-111051752D01*
X124758208Y-111060532D01*
X114892395Y-120926345D01*
X114883615Y-120934335D01*
X114883613Y-120934337D01*
X114876920Y-120938584D01*
X114871494Y-120944362D01*
X114871493Y-120944363D01*
X114828396Y-120990257D01*
X114825641Y-120993099D01*
X114805073Y-121013667D01*
X114802356Y-121017170D01*
X114794648Y-121026195D01*
X114763028Y-121059867D01*
X114759207Y-121066818D01*
X114759206Y-121066819D01*
X114752697Y-121078658D01*
X114741843Y-121095182D01*
X114734018Y-121105271D01*
X114728696Y-121112132D01*
X114725549Y-121119404D01*
X114725548Y-121119406D01*
X114710346Y-121154535D01*
X114705124Y-121165195D01*
X114682876Y-121205663D01*
X114677541Y-121226441D01*
X114671142Y-121245131D01*
X114662620Y-121264824D01*
X114660314Y-121279386D01*
X114655394Y-121310448D01*
X114652987Y-121322071D01*
X114641500Y-121366812D01*
X114641500Y-121388259D01*
X114639949Y-121407969D01*
X114636594Y-121429152D01*
X114637340Y-121437043D01*
X114640941Y-121475138D01*
X114641500Y-121486996D01*
X114641500Y-126946150D01*
X114621498Y-127014271D01*
X114598578Y-127040881D01*
X114437842Y-127181842D01*
X114303181Y-127352658D01*
X114201905Y-127545154D01*
X114200192Y-127550671D01*
X114149647Y-127713449D01*
X114110344Y-127772574D01*
X114045315Y-127801064D01*
X113975205Y-127789874D01*
X113922276Y-127742556D01*
X113908049Y-127710295D01*
X113869626Y-127574055D01*
X113773423Y-127378974D01*
X113656609Y-127222540D01*
X113646733Y-127209315D01*
X113646732Y-127209314D01*
X113643280Y-127204691D01*
X113515641Y-127086703D01*
X113487796Y-127060963D01*
X113487793Y-127060961D01*
X113483556Y-127057044D01*
X113299599Y-126940976D01*
X113097572Y-126860376D01*
X112884239Y-126817941D01*
X112878464Y-126817865D01*
X112878460Y-126817865D01*
X112769419Y-126816438D01*
X112666746Y-126815094D01*
X112661049Y-126816073D01*
X112661048Y-126816073D01*
X112458065Y-126850952D01*
X112458062Y-126850953D01*
X112452375Y-126851930D01*
X112248307Y-126927214D01*
X112061376Y-127038427D01*
X111897842Y-127181842D01*
X111763181Y-127352658D01*
X111661905Y-127545154D01*
X111660192Y-127550671D01*
X111609647Y-127713449D01*
X111570344Y-127772574D01*
X111505315Y-127801064D01*
X111435205Y-127789874D01*
X111382276Y-127742556D01*
X111368049Y-127710295D01*
X111329626Y-127574055D01*
X111233423Y-127378974D01*
X111116609Y-127222540D01*
X111106733Y-127209315D01*
X111106732Y-127209314D01*
X111103280Y-127204691D01*
X110975641Y-127086703D01*
X110947796Y-127060963D01*
X110947793Y-127060961D01*
X110943556Y-127057044D01*
X110759599Y-126940976D01*
X110557572Y-126860376D01*
X110344239Y-126817941D01*
X110338464Y-126817865D01*
X110338460Y-126817865D01*
X110229419Y-126816438D01*
X110126746Y-126815094D01*
X110121049Y-126816073D01*
X110121048Y-126816073D01*
X109918065Y-126850952D01*
X109918062Y-126850953D01*
X109912375Y-126851930D01*
X109708307Y-126927214D01*
X109521376Y-127038427D01*
X109357842Y-127181842D01*
X109223181Y-127352658D01*
X109121905Y-127545154D01*
X109120192Y-127550671D01*
X109069647Y-127713449D01*
X109030344Y-127772574D01*
X108965315Y-127801064D01*
X108895205Y-127789874D01*
X108842276Y-127742556D01*
X108828049Y-127710295D01*
X108789626Y-127574055D01*
X108693423Y-127378974D01*
X108576609Y-127222540D01*
X108566733Y-127209315D01*
X108566732Y-127209314D01*
X108563280Y-127204691D01*
X108435641Y-127086703D01*
X108407796Y-127060963D01*
X108407793Y-127060961D01*
X108403556Y-127057044D01*
X108219599Y-126940976D01*
X108017572Y-126860376D01*
X107804239Y-126817941D01*
X107798464Y-126817865D01*
X107798460Y-126817865D01*
X107689419Y-126816438D01*
X107586746Y-126815094D01*
X107581049Y-126816073D01*
X107581048Y-126816073D01*
X107378065Y-126850952D01*
X107378062Y-126850953D01*
X107372375Y-126851930D01*
X107168307Y-126927214D01*
X106981376Y-127038427D01*
X106817842Y-127181842D01*
X106683181Y-127352658D01*
X106581905Y-127545154D01*
X106580192Y-127550671D01*
X106529647Y-127713449D01*
X106490344Y-127772574D01*
X106425315Y-127801064D01*
X106355205Y-127789874D01*
X106302276Y-127742556D01*
X106288049Y-127710295D01*
X106249626Y-127574055D01*
X106153423Y-127378974D01*
X106036609Y-127222540D01*
X106026733Y-127209315D01*
X106026732Y-127209314D01*
X106023280Y-127204691D01*
X105895641Y-127086703D01*
X105867796Y-127060963D01*
X105867793Y-127060961D01*
X105863556Y-127057044D01*
X105679599Y-126940976D01*
X105477572Y-126860376D01*
X105264239Y-126817941D01*
X105258464Y-126817865D01*
X105258460Y-126817865D01*
X105149419Y-126816438D01*
X105046746Y-126815094D01*
X105041049Y-126816073D01*
X105041048Y-126816073D01*
X104838065Y-126850952D01*
X104838062Y-126850953D01*
X104832375Y-126851930D01*
X104628307Y-126927214D01*
X104441376Y-127038427D01*
X104277842Y-127181842D01*
X104143181Y-127352658D01*
X104041905Y-127545154D01*
X103977403Y-127752882D01*
X103951837Y-127968887D01*
X103567347Y-127968887D01*
X103579204Y-127919498D01*
X103617223Y-127761139D01*
X103617224Y-127761133D01*
X103618378Y-127756326D01*
X103638551Y-127500000D01*
X103618378Y-127243674D01*
X103613305Y-127222540D01*
X103569692Y-127040882D01*
X103558355Y-126993660D01*
X103535646Y-126938836D01*
X103461855Y-126760687D01*
X103461853Y-126760683D01*
X103459960Y-126756113D01*
X103325616Y-126536884D01*
X103158631Y-126341369D01*
X102963116Y-126174384D01*
X102743887Y-126040040D01*
X102739317Y-126038147D01*
X102739313Y-126038145D01*
X102510913Y-125943539D01*
X102510911Y-125943538D01*
X102506340Y-125941645D01*
X102419498Y-125920796D01*
X102261139Y-125882777D01*
X102261133Y-125882776D01*
X102256326Y-125881622D01*
X102167035Y-125874595D01*
X102066637Y-125866693D01*
X102066628Y-125866693D01*
X102064180Y-125866500D01*
X101935820Y-125866500D01*
X101933372Y-125866693D01*
X101933363Y-125866693D01*
X101832965Y-125874595D01*
X101743674Y-125881622D01*
X101738867Y-125882776D01*
X101738861Y-125882777D01*
X101580502Y-125920796D01*
X101493660Y-125941645D01*
X101489089Y-125943538D01*
X101489087Y-125943539D01*
X101260687Y-126038145D01*
X101260683Y-126038147D01*
X101256113Y-126040040D01*
X101036884Y-126174384D01*
X100841369Y-126341369D01*
X100784125Y-126408394D01*
X100730311Y-126471402D01*
X100670861Y-126510211D01*
X100599866Y-126510719D01*
X100539867Y-126472763D01*
X100509914Y-126408394D01*
X100508500Y-126389572D01*
X100508500Y-122632703D01*
X102890743Y-122632703D01*
X102928268Y-122917734D01*
X103004129Y-123195036D01*
X103116923Y-123459476D01*
X103264561Y-123706161D01*
X103444313Y-123930528D01*
X103652851Y-124128423D01*
X103886317Y-124296186D01*
X103890112Y-124298195D01*
X103890113Y-124298196D01*
X103911869Y-124309715D01*
X104140392Y-124430712D01*
X104410373Y-124529511D01*
X104691264Y-124590755D01*
X104719841Y-124593004D01*
X104914282Y-124608307D01*
X104914291Y-124608307D01*
X104916739Y-124608500D01*
X105072271Y-124608500D01*
X105074407Y-124608354D01*
X105074418Y-124608354D01*
X105282548Y-124594165D01*
X105282554Y-124594164D01*
X105286825Y-124593873D01*
X105291020Y-124593004D01*
X105291022Y-124593004D01*
X105427584Y-124564723D01*
X105568342Y-124535574D01*
X105839343Y-124439607D01*
X106094812Y-124307750D01*
X106098313Y-124305289D01*
X106098317Y-124305287D01*
X106212418Y-124225095D01*
X106330023Y-124142441D01*
X106540622Y-123946740D01*
X106722713Y-123724268D01*
X106872927Y-123479142D01*
X106988483Y-123215898D01*
X107067244Y-122939406D01*
X107107751Y-122654784D01*
X107107819Y-122641991D01*
X107109235Y-122371583D01*
X107109235Y-122371576D01*
X107109257Y-122367297D01*
X107106441Y-122345903D01*
X107072292Y-122086522D01*
X107071732Y-122082266D01*
X106995871Y-121804964D01*
X106883077Y-121540524D01*
X106783858Y-121374741D01*
X106737643Y-121297521D01*
X106737640Y-121297517D01*
X106735439Y-121293839D01*
X106555687Y-121069472D01*
X106413282Y-120934335D01*
X106350258Y-120874527D01*
X106350255Y-120874525D01*
X106347149Y-120871577D01*
X106113683Y-120703814D01*
X106091843Y-120692250D01*
X106068654Y-120679972D01*
X105859608Y-120569288D01*
X105631770Y-120485911D01*
X105593658Y-120471964D01*
X105593656Y-120471963D01*
X105589627Y-120470489D01*
X105308736Y-120409245D01*
X105277685Y-120406801D01*
X105085718Y-120391693D01*
X105085709Y-120391693D01*
X105083261Y-120391500D01*
X104927729Y-120391500D01*
X104925593Y-120391646D01*
X104925582Y-120391646D01*
X104717452Y-120405835D01*
X104717446Y-120405836D01*
X104713175Y-120406127D01*
X104708980Y-120406996D01*
X104708978Y-120406996D01*
X104572417Y-120435276D01*
X104431658Y-120464426D01*
X104160657Y-120560393D01*
X103905188Y-120692250D01*
X103901687Y-120694711D01*
X103901683Y-120694713D01*
X103787583Y-120774904D01*
X103669977Y-120857559D01*
X103654892Y-120871577D01*
X103498615Y-121016799D01*
X103459378Y-121053260D01*
X103277287Y-121275732D01*
X103127073Y-121520858D01*
X103011517Y-121784102D01*
X102932756Y-122060594D01*
X102892249Y-122345216D01*
X102892227Y-122349505D01*
X102892226Y-122349512D01*
X102891001Y-122583359D01*
X102890743Y-122632703D01*
X100508500Y-122632703D01*
X100508500Y-107632703D01*
X102890743Y-107632703D01*
X102891302Y-107636947D01*
X102891302Y-107636951D01*
X102893650Y-107654784D01*
X102928268Y-107917734D01*
X103004129Y-108195036D01*
X103116923Y-108459476D01*
X103264561Y-108706161D01*
X103444313Y-108930528D01*
X103652851Y-109128423D01*
X103886317Y-109296186D01*
X103890112Y-109298195D01*
X103890113Y-109298196D01*
X103911869Y-109309715D01*
X104140392Y-109430712D01*
X104164699Y-109439607D01*
X104380727Y-109518662D01*
X104410373Y-109529511D01*
X104691264Y-109590755D01*
X104719841Y-109593004D01*
X104914282Y-109608307D01*
X104914291Y-109608307D01*
X104916739Y-109608500D01*
X105072271Y-109608500D01*
X105074407Y-109608354D01*
X105074418Y-109608354D01*
X105282548Y-109594165D01*
X105282554Y-109594164D01*
X105286825Y-109593873D01*
X105291020Y-109593004D01*
X105291022Y-109593004D01*
X105427583Y-109564724D01*
X105568342Y-109535574D01*
X105839343Y-109439607D01*
X106094812Y-109307750D01*
X106098313Y-109305289D01*
X106098317Y-109305287D01*
X106212418Y-109225095D01*
X106330023Y-109142441D01*
X106540622Y-108946740D01*
X106722713Y-108724268D01*
X106872927Y-108479142D01*
X106988483Y-108215898D01*
X107067244Y-107939406D01*
X107107751Y-107654784D01*
X107107845Y-107636951D01*
X107107867Y-107632703D01*
X147890743Y-107632703D01*
X147891302Y-107636947D01*
X147891302Y-107636951D01*
X147893650Y-107654784D01*
X147928268Y-107917734D01*
X148004129Y-108195036D01*
X148116923Y-108459476D01*
X148264561Y-108706161D01*
X148444313Y-108930528D01*
X148652851Y-109128423D01*
X148886317Y-109296186D01*
X148890112Y-109298195D01*
X148890113Y-109298196D01*
X148911869Y-109309715D01*
X149140392Y-109430712D01*
X149164699Y-109439607D01*
X149380727Y-109518662D01*
X149410373Y-109529511D01*
X149691264Y-109590755D01*
X149719841Y-109593004D01*
X149914282Y-109608307D01*
X149914291Y-109608307D01*
X149916739Y-109608500D01*
X150072271Y-109608500D01*
X150074407Y-109608354D01*
X150074418Y-109608354D01*
X150282548Y-109594165D01*
X150282554Y-109594164D01*
X150286825Y-109593873D01*
X150291020Y-109593004D01*
X150291022Y-109593004D01*
X150427583Y-109564724D01*
X150568342Y-109535574D01*
X150839343Y-109439607D01*
X151094812Y-109307750D01*
X151098313Y-109305289D01*
X151098317Y-109305287D01*
X151212417Y-109225096D01*
X151330023Y-109142441D01*
X151540622Y-108946740D01*
X151722713Y-108724268D01*
X151872927Y-108479142D01*
X151988483Y-108215898D01*
X152067244Y-107939406D01*
X152107751Y-107654784D01*
X152107845Y-107636951D01*
X152109235Y-107371583D01*
X152109235Y-107371576D01*
X152109257Y-107367297D01*
X152071732Y-107082266D01*
X151995871Y-106804964D01*
X151883077Y-106540524D01*
X151735439Y-106293839D01*
X151555687Y-106069472D01*
X151347149Y-105871577D01*
X151113683Y-105703814D01*
X151091843Y-105692250D01*
X151068654Y-105679972D01*
X150859608Y-105569288D01*
X150589627Y-105470489D01*
X150308736Y-105409245D01*
X150277685Y-105406801D01*
X150085718Y-105391693D01*
X150085709Y-105391693D01*
X150083261Y-105391500D01*
X149927729Y-105391500D01*
X149925593Y-105391646D01*
X149925582Y-105391646D01*
X149717452Y-105405835D01*
X149717446Y-105405836D01*
X149713175Y-105406127D01*
X149708980Y-105406996D01*
X149708978Y-105406996D01*
X149572416Y-105435277D01*
X149431658Y-105464426D01*
X149160657Y-105560393D01*
X148905188Y-105692250D01*
X148901687Y-105694711D01*
X148901683Y-105694713D01*
X148891594Y-105701804D01*
X148669977Y-105857559D01*
X148459378Y-106053260D01*
X148277287Y-106275732D01*
X148127073Y-106520858D01*
X148011517Y-106784102D01*
X147932756Y-107060594D01*
X147892249Y-107345216D01*
X147892227Y-107349505D01*
X147892226Y-107349512D01*
X147890765Y-107628417D01*
X147890743Y-107632703D01*
X107107867Y-107632703D01*
X107109235Y-107371583D01*
X107109235Y-107371576D01*
X107109257Y-107367297D01*
X107071732Y-107082266D01*
X106995871Y-106804964D01*
X106883077Y-106540524D01*
X106735439Y-106293839D01*
X106555687Y-106069472D01*
X106347149Y-105871577D01*
X106113683Y-105703814D01*
X106091843Y-105692250D01*
X106068654Y-105679972D01*
X105859608Y-105569288D01*
X105589627Y-105470489D01*
X105308736Y-105409245D01*
X105277685Y-105406801D01*
X105085718Y-105391693D01*
X105085709Y-105391693D01*
X105083261Y-105391500D01*
X104927729Y-105391500D01*
X104925593Y-105391646D01*
X104925582Y-105391646D01*
X104717452Y-105405835D01*
X104717446Y-105405836D01*
X104713175Y-105406127D01*
X104708980Y-105406996D01*
X104708978Y-105406996D01*
X104572416Y-105435277D01*
X104431658Y-105464426D01*
X104160657Y-105560393D01*
X103905188Y-105692250D01*
X103901687Y-105694711D01*
X103901683Y-105694713D01*
X103891594Y-105701804D01*
X103669977Y-105857559D01*
X103459378Y-106053260D01*
X103277287Y-106275732D01*
X103127073Y-106520858D01*
X103011517Y-106784102D01*
X102932756Y-107060594D01*
X102892249Y-107345216D01*
X102892227Y-107349505D01*
X102892226Y-107349512D01*
X102890765Y-107628417D01*
X102890743Y-107632703D01*
X100508500Y-107632703D01*
X100508500Y-103610428D01*
X100528502Y-103542307D01*
X100582158Y-103495814D01*
X100652432Y-103485710D01*
X100717012Y-103515204D01*
X100730309Y-103528596D01*
X100841369Y-103658631D01*
X101036884Y-103825616D01*
X101256113Y-103959960D01*
X101260683Y-103961853D01*
X101260687Y-103961855D01*
X101489087Y-104056461D01*
X101493660Y-104058355D01*
X101580502Y-104079204D01*
X101738861Y-104117223D01*
X101738867Y-104117224D01*
X101743674Y-104118378D01*
X101832965Y-104125405D01*
X101933363Y-104133307D01*
X101933372Y-104133307D01*
X101935820Y-104133500D01*
X102064180Y-104133500D01*
X102066628Y-104133307D01*
X102066637Y-104133307D01*
X102167035Y-104125405D01*
X102256326Y-104118378D01*
X102261133Y-104117224D01*
X102261139Y-104117223D01*
X102419498Y-104079204D01*
X102506340Y-104058355D01*
X102510913Y-104056461D01*
X102739313Y-103961855D01*
X102739317Y-103961853D01*
X102743887Y-103959960D01*
X102963116Y-103825616D01*
X103158631Y-103658631D01*
X103325616Y-103463116D01*
X103459960Y-103243887D01*
X103485181Y-103183000D01*
X103556461Y-103010913D01*
X103556462Y-103010911D01*
X103558355Y-103006340D01*
X103580751Y-102913054D01*
X103617223Y-102761139D01*
X103617224Y-102761133D01*
X103618378Y-102756326D01*
X103621263Y-102719669D01*
X103957001Y-102719669D01*
X103957371Y-102726490D01*
X103962895Y-102777352D01*
X103966521Y-102792604D01*
X104011676Y-102913054D01*
X104020214Y-102928649D01*
X104096715Y-103030724D01*
X104109276Y-103043285D01*
X104211351Y-103119786D01*
X104226946Y-103128324D01*
X104347394Y-103173478D01*
X104362649Y-103177105D01*
X104413514Y-103182631D01*
X104420328Y-103183000D01*
X104867885Y-103183000D01*
X104883124Y-103178525D01*
X104884329Y-103177135D01*
X104886000Y-103169452D01*
X104886000Y-103164884D01*
X105394000Y-103164884D01*
X105398475Y-103180123D01*
X105399865Y-103181328D01*
X105407548Y-103182999D01*
X105859669Y-103182999D01*
X105866490Y-103182629D01*
X105917352Y-103177105D01*
X105932604Y-103173479D01*
X106053054Y-103128324D01*
X106068649Y-103119786D01*
X106170724Y-103043285D01*
X106183285Y-103030724D01*
X106259786Y-102928649D01*
X106268324Y-102913054D01*
X106313478Y-102792606D01*
X106317105Y-102777351D01*
X106322631Y-102726486D01*
X106323000Y-102719672D01*
X106323000Y-102457792D01*
X106343002Y-102389671D01*
X106396658Y-102343178D01*
X106466932Y-102333074D01*
X106531512Y-102362568D01*
X106563425Y-102405040D01*
X106650668Y-102594285D01*
X106654001Y-102599001D01*
X106744099Y-102726486D01*
X106776204Y-102771914D01*
X106932009Y-102923692D01*
X107112863Y-103044536D01*
X107118171Y-103046817D01*
X107118172Y-103046817D01*
X107307409Y-103128119D01*
X107307412Y-103128120D01*
X107312712Y-103130397D01*
X107318342Y-103131671D01*
X107503104Y-103173479D01*
X107524860Y-103178402D01*
X107530631Y-103178629D01*
X107530633Y-103178629D01*
X107599336Y-103181328D01*
X107742205Y-103186941D01*
X107957466Y-103155730D01*
X107962930Y-103153875D01*
X107962935Y-103153874D01*
X108157963Y-103087671D01*
X108157968Y-103087669D01*
X108163435Y-103085813D01*
X108353213Y-102979532D01*
X108520446Y-102840446D01*
X108659532Y-102673213D01*
X108765813Y-102483435D01*
X108767669Y-102477968D01*
X108767671Y-102477963D01*
X108832614Y-102286646D01*
X108873451Y-102228569D01*
X108939204Y-102201791D01*
X109008996Y-102214812D01*
X109060669Y-102263499D01*
X109074050Y-102296131D01*
X109099605Y-102396753D01*
X109102022Y-102401996D01*
X109147202Y-102500000D01*
X109190668Y-102594285D01*
X109194001Y-102599001D01*
X109284099Y-102726486D01*
X109316204Y-102771914D01*
X109472009Y-102923692D01*
X109652863Y-103044536D01*
X109658171Y-103046817D01*
X109658172Y-103046817D01*
X109847409Y-103128119D01*
X109847412Y-103128120D01*
X109852712Y-103130397D01*
X109858342Y-103131671D01*
X110043104Y-103173479D01*
X110064860Y-103178402D01*
X110070631Y-103178629D01*
X110070633Y-103178629D01*
X110139336Y-103181328D01*
X110282205Y-103186941D01*
X110497466Y-103155730D01*
X110502930Y-103153875D01*
X110502935Y-103153874D01*
X110697963Y-103087671D01*
X110697968Y-103087669D01*
X110703435Y-103085813D01*
X110893213Y-102979532D01*
X111060446Y-102840446D01*
X111199532Y-102673213D01*
X111305813Y-102483435D01*
X111307669Y-102477968D01*
X111307671Y-102477963D01*
X111372614Y-102286646D01*
X111413451Y-102228569D01*
X111479204Y-102201791D01*
X111548996Y-102214812D01*
X111600669Y-102263499D01*
X111614050Y-102296131D01*
X111639605Y-102396753D01*
X111642022Y-102401996D01*
X111687202Y-102500000D01*
X111730668Y-102594285D01*
X111734001Y-102599001D01*
X111824099Y-102726486D01*
X111856204Y-102771914D01*
X112012009Y-102923692D01*
X112192863Y-103044536D01*
X112198171Y-103046817D01*
X112198172Y-103046817D01*
X112387409Y-103128119D01*
X112387412Y-103128120D01*
X112392712Y-103130397D01*
X112398342Y-103131671D01*
X112583104Y-103173479D01*
X112604860Y-103178402D01*
X112610631Y-103178629D01*
X112610633Y-103178629D01*
X112679336Y-103181328D01*
X112822205Y-103186941D01*
X113037466Y-103155730D01*
X113042930Y-103153875D01*
X113042935Y-103153874D01*
X113237963Y-103087671D01*
X113237968Y-103087669D01*
X113243435Y-103085813D01*
X113433213Y-102979532D01*
X113600446Y-102840446D01*
X113739532Y-102673213D01*
X113845813Y-102483435D01*
X113847669Y-102477968D01*
X113847671Y-102477963D01*
X113912614Y-102286646D01*
X113953451Y-102228569D01*
X114019204Y-102201791D01*
X114088996Y-102214812D01*
X114140669Y-102263499D01*
X114154050Y-102296131D01*
X114179605Y-102396753D01*
X114182022Y-102401996D01*
X114227202Y-102500000D01*
X114270668Y-102594285D01*
X114274001Y-102599001D01*
X114364099Y-102726486D01*
X114396204Y-102771914D01*
X114552009Y-102923692D01*
X114732863Y-103044536D01*
X114738171Y-103046817D01*
X114738172Y-103046817D01*
X114927409Y-103128119D01*
X114927412Y-103128120D01*
X114932712Y-103130397D01*
X114938342Y-103131671D01*
X115123104Y-103173479D01*
X115144860Y-103178402D01*
X115150631Y-103178629D01*
X115150633Y-103178629D01*
X115219336Y-103181328D01*
X115362205Y-103186941D01*
X115577466Y-103155730D01*
X115582930Y-103153875D01*
X115582935Y-103153874D01*
X115777963Y-103087671D01*
X115777968Y-103087669D01*
X115783435Y-103085813D01*
X115973213Y-102979532D01*
X116140446Y-102840446D01*
X116279532Y-102673213D01*
X116385813Y-102483435D01*
X116387669Y-102477968D01*
X116387671Y-102477963D01*
X116452614Y-102286646D01*
X116493451Y-102228569D01*
X116559204Y-102201791D01*
X116628996Y-102214812D01*
X116680669Y-102263499D01*
X116694050Y-102296131D01*
X116719605Y-102396753D01*
X116722022Y-102401996D01*
X116767202Y-102500000D01*
X116810668Y-102594285D01*
X116814001Y-102599001D01*
X116904099Y-102726486D01*
X116936204Y-102771914D01*
X117092009Y-102923692D01*
X117272863Y-103044536D01*
X117278171Y-103046817D01*
X117278172Y-103046817D01*
X117467409Y-103128119D01*
X117467412Y-103128120D01*
X117472712Y-103130397D01*
X117478342Y-103131671D01*
X117663104Y-103173479D01*
X117684860Y-103178402D01*
X117690631Y-103178629D01*
X117690633Y-103178629D01*
X117759336Y-103181328D01*
X117902205Y-103186941D01*
X118117466Y-103155730D01*
X118122930Y-103153875D01*
X118122935Y-103153874D01*
X118317963Y-103087671D01*
X118317968Y-103087669D01*
X118323435Y-103085813D01*
X118513213Y-102979532D01*
X118680446Y-102840446D01*
X118819532Y-102673213D01*
X118925813Y-102483435D01*
X118927669Y-102477968D01*
X118927671Y-102477963D01*
X118992614Y-102286646D01*
X119033451Y-102228569D01*
X119099204Y-102201791D01*
X119168996Y-102214812D01*
X119220669Y-102263499D01*
X119234050Y-102296131D01*
X119259605Y-102396753D01*
X119262022Y-102401996D01*
X119307202Y-102500000D01*
X119350668Y-102594285D01*
X119354001Y-102599001D01*
X119444099Y-102726486D01*
X119476204Y-102771914D01*
X119632009Y-102923692D01*
X119812863Y-103044536D01*
X119818171Y-103046817D01*
X119818172Y-103046817D01*
X120007409Y-103128119D01*
X120007412Y-103128120D01*
X120012712Y-103130397D01*
X120018342Y-103131671D01*
X120203104Y-103173479D01*
X120224860Y-103178402D01*
X120230631Y-103178629D01*
X120230633Y-103178629D01*
X120299336Y-103181328D01*
X120442205Y-103186941D01*
X120657466Y-103155730D01*
X120662930Y-103153875D01*
X120662935Y-103153874D01*
X120857963Y-103087671D01*
X120857968Y-103087669D01*
X120863435Y-103085813D01*
X121053213Y-102979532D01*
X121220446Y-102840446D01*
X121359532Y-102673213D01*
X121465813Y-102483435D01*
X121467669Y-102477968D01*
X121467671Y-102477963D01*
X121532614Y-102286646D01*
X121573451Y-102228569D01*
X121639204Y-102201791D01*
X121708996Y-102214812D01*
X121760669Y-102263499D01*
X121774050Y-102296131D01*
X121799605Y-102396753D01*
X121802022Y-102401996D01*
X121847202Y-102500000D01*
X121890668Y-102594285D01*
X121894001Y-102599001D01*
X121984099Y-102726486D01*
X122016204Y-102771914D01*
X122172009Y-102923692D01*
X122352863Y-103044536D01*
X122358171Y-103046817D01*
X122358172Y-103046817D01*
X122547409Y-103128119D01*
X122547412Y-103128120D01*
X122552712Y-103130397D01*
X122558342Y-103131671D01*
X122743104Y-103173479D01*
X122764860Y-103178402D01*
X122770631Y-103178629D01*
X122770633Y-103178629D01*
X122839336Y-103181328D01*
X122982205Y-103186941D01*
X123197466Y-103155730D01*
X123202930Y-103153875D01*
X123202935Y-103153874D01*
X123397963Y-103087671D01*
X123397968Y-103087669D01*
X123403435Y-103085813D01*
X123593213Y-102979532D01*
X123760446Y-102840446D01*
X123899532Y-102673213D01*
X124005813Y-102483435D01*
X124007669Y-102477968D01*
X124007671Y-102477963D01*
X124072614Y-102286646D01*
X124113451Y-102228569D01*
X124179204Y-102201791D01*
X124248996Y-102214812D01*
X124300669Y-102263499D01*
X124314050Y-102296131D01*
X124339605Y-102396753D01*
X124342022Y-102401996D01*
X124387202Y-102500000D01*
X124430668Y-102594285D01*
X124434001Y-102599001D01*
X124524099Y-102726486D01*
X124556204Y-102771914D01*
X124712009Y-102923692D01*
X124892863Y-103044536D01*
X124898171Y-103046817D01*
X124898172Y-103046817D01*
X125087409Y-103128119D01*
X125087412Y-103128120D01*
X125092712Y-103130397D01*
X125098342Y-103131671D01*
X125283104Y-103173479D01*
X125304860Y-103178402D01*
X125310631Y-103178629D01*
X125310633Y-103178629D01*
X125379336Y-103181328D01*
X125522205Y-103186941D01*
X125737466Y-103155730D01*
X125742930Y-103153875D01*
X125742935Y-103153874D01*
X125937963Y-103087671D01*
X125937968Y-103087669D01*
X125943435Y-103085813D01*
X126133213Y-102979532D01*
X126300446Y-102840446D01*
X126439532Y-102673213D01*
X126545813Y-102483435D01*
X126547669Y-102477968D01*
X126547671Y-102477963D01*
X126612614Y-102286646D01*
X126653451Y-102228569D01*
X126719204Y-102201791D01*
X126788996Y-102214812D01*
X126840669Y-102263499D01*
X126854050Y-102296131D01*
X126879605Y-102396753D01*
X126882022Y-102401996D01*
X126927202Y-102500000D01*
X126970668Y-102594285D01*
X126974001Y-102599001D01*
X127064099Y-102726486D01*
X127096204Y-102771914D01*
X127252009Y-102923692D01*
X127432863Y-103044536D01*
X127438171Y-103046817D01*
X127438172Y-103046817D01*
X127627409Y-103128119D01*
X127627412Y-103128120D01*
X127632712Y-103130397D01*
X127638342Y-103131671D01*
X127823104Y-103173479D01*
X127844860Y-103178402D01*
X127850631Y-103178629D01*
X127850633Y-103178629D01*
X127919336Y-103181328D01*
X128062205Y-103186941D01*
X128277466Y-103155730D01*
X128282930Y-103153875D01*
X128282935Y-103153874D01*
X128477963Y-103087671D01*
X128477968Y-103087669D01*
X128483435Y-103085813D01*
X128673213Y-102979532D01*
X128840446Y-102840446D01*
X128979532Y-102673213D01*
X129085813Y-102483435D01*
X129087669Y-102477968D01*
X129087671Y-102477963D01*
X129152614Y-102286646D01*
X129193451Y-102228569D01*
X129259204Y-102201791D01*
X129328996Y-102214812D01*
X129380669Y-102263499D01*
X129394050Y-102296131D01*
X129419605Y-102396753D01*
X129422022Y-102401996D01*
X129467202Y-102500000D01*
X129510668Y-102594285D01*
X129514001Y-102599001D01*
X129604099Y-102726486D01*
X129636204Y-102771914D01*
X129792009Y-102923692D01*
X129972863Y-103044536D01*
X129978171Y-103046817D01*
X129978172Y-103046817D01*
X130167409Y-103128119D01*
X130167412Y-103128120D01*
X130172712Y-103130397D01*
X130178342Y-103131671D01*
X130363104Y-103173479D01*
X130384860Y-103178402D01*
X130390631Y-103178629D01*
X130390633Y-103178629D01*
X130459336Y-103181328D01*
X130602205Y-103186941D01*
X130817466Y-103155730D01*
X130822930Y-103153875D01*
X130822935Y-103153874D01*
X131017963Y-103087671D01*
X131017968Y-103087669D01*
X131023435Y-103085813D01*
X131213213Y-102979532D01*
X131380446Y-102840446D01*
X131519532Y-102673213D01*
X131625813Y-102483435D01*
X131627669Y-102477968D01*
X131627671Y-102477963D01*
X131692614Y-102286646D01*
X131733451Y-102228569D01*
X131799204Y-102201791D01*
X131868996Y-102214812D01*
X131920669Y-102263499D01*
X131934050Y-102296131D01*
X131959605Y-102396753D01*
X131962022Y-102401996D01*
X132007202Y-102500000D01*
X132050668Y-102594285D01*
X132054001Y-102599001D01*
X132144099Y-102726486D01*
X132176204Y-102771914D01*
X132332009Y-102923692D01*
X132512863Y-103044536D01*
X132518171Y-103046817D01*
X132518172Y-103046817D01*
X132707409Y-103128119D01*
X132707412Y-103128120D01*
X132712712Y-103130397D01*
X132718342Y-103131671D01*
X132903104Y-103173479D01*
X132924860Y-103178402D01*
X132930631Y-103178629D01*
X132930633Y-103178629D01*
X132999336Y-103181328D01*
X133142205Y-103186941D01*
X133357466Y-103155730D01*
X133362930Y-103153875D01*
X133362935Y-103153874D01*
X133557963Y-103087671D01*
X133557968Y-103087669D01*
X133563435Y-103085813D01*
X133753213Y-102979532D01*
X133920446Y-102840446D01*
X134059532Y-102673213D01*
X134165813Y-102483435D01*
X134167669Y-102477968D01*
X134167671Y-102477963D01*
X134232614Y-102286646D01*
X134273451Y-102228569D01*
X134339204Y-102201791D01*
X134408996Y-102214812D01*
X134460669Y-102263499D01*
X134474050Y-102296131D01*
X134499605Y-102396753D01*
X134502022Y-102401996D01*
X134547202Y-102500000D01*
X134590668Y-102594285D01*
X134594001Y-102599001D01*
X134684099Y-102726486D01*
X134716204Y-102771914D01*
X134872009Y-102923692D01*
X135052863Y-103044536D01*
X135058171Y-103046817D01*
X135058172Y-103046817D01*
X135247409Y-103128119D01*
X135247412Y-103128120D01*
X135252712Y-103130397D01*
X135258342Y-103131671D01*
X135443104Y-103173479D01*
X135464860Y-103178402D01*
X135470631Y-103178629D01*
X135470633Y-103178629D01*
X135539336Y-103181328D01*
X135682205Y-103186941D01*
X135897466Y-103155730D01*
X135902930Y-103153875D01*
X135902935Y-103153874D01*
X136097963Y-103087671D01*
X136097968Y-103087669D01*
X136103435Y-103085813D01*
X136293213Y-102979532D01*
X136460446Y-102840446D01*
X136599532Y-102673213D01*
X136705813Y-102483435D01*
X136707669Y-102477968D01*
X136707671Y-102477963D01*
X136772614Y-102286646D01*
X136813451Y-102228569D01*
X136879204Y-102201791D01*
X136948996Y-102214812D01*
X137000669Y-102263499D01*
X137014050Y-102296131D01*
X137039605Y-102396753D01*
X137042022Y-102401996D01*
X137087202Y-102500000D01*
X137130668Y-102594285D01*
X137134001Y-102599001D01*
X137224099Y-102726486D01*
X137256204Y-102771914D01*
X137412009Y-102923692D01*
X137592863Y-103044536D01*
X137598171Y-103046817D01*
X137598172Y-103046817D01*
X137787409Y-103128119D01*
X137787412Y-103128120D01*
X137792712Y-103130397D01*
X137798342Y-103131671D01*
X137983104Y-103173479D01*
X138004860Y-103178402D01*
X138010631Y-103178629D01*
X138010633Y-103178629D01*
X138079336Y-103181328D01*
X138222205Y-103186941D01*
X138437466Y-103155730D01*
X138442930Y-103153875D01*
X138442935Y-103153874D01*
X138637963Y-103087671D01*
X138637968Y-103087669D01*
X138643435Y-103085813D01*
X138833213Y-102979532D01*
X139000446Y-102840446D01*
X139139532Y-102673213D01*
X139245813Y-102483435D01*
X139247669Y-102477968D01*
X139247671Y-102477963D01*
X139312614Y-102286646D01*
X139353451Y-102228569D01*
X139419204Y-102201791D01*
X139488996Y-102214812D01*
X139540669Y-102263499D01*
X139554050Y-102296131D01*
X139579605Y-102396753D01*
X139582022Y-102401996D01*
X139627202Y-102500000D01*
X139670668Y-102594285D01*
X139674001Y-102599001D01*
X139764099Y-102726486D01*
X139796204Y-102771914D01*
X139952009Y-102923692D01*
X140132863Y-103044536D01*
X140138171Y-103046817D01*
X140138172Y-103046817D01*
X140327409Y-103128119D01*
X140327412Y-103128120D01*
X140332712Y-103130397D01*
X140338342Y-103131671D01*
X140523104Y-103173479D01*
X140544860Y-103178402D01*
X140550631Y-103178629D01*
X140550633Y-103178629D01*
X140619336Y-103181328D01*
X140762205Y-103186941D01*
X140977466Y-103155730D01*
X140982930Y-103153875D01*
X140982935Y-103153874D01*
X141177963Y-103087671D01*
X141177968Y-103087669D01*
X141183435Y-103085813D01*
X141373213Y-102979532D01*
X141540446Y-102840446D01*
X141679532Y-102673213D01*
X141785813Y-102483435D01*
X141787669Y-102477968D01*
X141787671Y-102477963D01*
X141852614Y-102286646D01*
X141893451Y-102228569D01*
X141959204Y-102201791D01*
X142028996Y-102214812D01*
X142080669Y-102263499D01*
X142094050Y-102296131D01*
X142119605Y-102396753D01*
X142122022Y-102401996D01*
X142167202Y-102500000D01*
X142210668Y-102594285D01*
X142214001Y-102599001D01*
X142304099Y-102726486D01*
X142336204Y-102771914D01*
X142492009Y-102923692D01*
X142672863Y-103044536D01*
X142678171Y-103046817D01*
X142678172Y-103046817D01*
X142867409Y-103128119D01*
X142867412Y-103128120D01*
X142872712Y-103130397D01*
X142878342Y-103131671D01*
X143063104Y-103173479D01*
X143084860Y-103178402D01*
X143090631Y-103178629D01*
X143090633Y-103178629D01*
X143159336Y-103181328D01*
X143302205Y-103186941D01*
X143517466Y-103155730D01*
X143522930Y-103153875D01*
X143522935Y-103153874D01*
X143717963Y-103087671D01*
X143717968Y-103087669D01*
X143723435Y-103085813D01*
X143913213Y-102979532D01*
X144080446Y-102840446D01*
X144219532Y-102673213D01*
X144325813Y-102483435D01*
X144327669Y-102477968D01*
X144327671Y-102477963D01*
X144392614Y-102286646D01*
X144433451Y-102228569D01*
X144499204Y-102201791D01*
X144568996Y-102214812D01*
X144620669Y-102263499D01*
X144634050Y-102296131D01*
X144659605Y-102396753D01*
X144662022Y-102401996D01*
X144707202Y-102500000D01*
X144750668Y-102594285D01*
X144754001Y-102599001D01*
X144844099Y-102726486D01*
X144876204Y-102771914D01*
X145032009Y-102923692D01*
X145212863Y-103044536D01*
X145218171Y-103046817D01*
X145218172Y-103046817D01*
X145407409Y-103128119D01*
X145407412Y-103128120D01*
X145412712Y-103130397D01*
X145418342Y-103131671D01*
X145603104Y-103173479D01*
X145624860Y-103178402D01*
X145630631Y-103178629D01*
X145630633Y-103178629D01*
X145699336Y-103181328D01*
X145842205Y-103186941D01*
X146057466Y-103155730D01*
X146062930Y-103153875D01*
X146062935Y-103153874D01*
X146257963Y-103087671D01*
X146257968Y-103087669D01*
X146263435Y-103085813D01*
X146453213Y-102979532D01*
X146620446Y-102840446D01*
X146759532Y-102673213D01*
X146865813Y-102483435D01*
X146867669Y-102477968D01*
X146867671Y-102477963D01*
X146932614Y-102286646D01*
X146973451Y-102228569D01*
X147039204Y-102201791D01*
X147108996Y-102214812D01*
X147160669Y-102263499D01*
X147174050Y-102296131D01*
X147199605Y-102396753D01*
X147202022Y-102401996D01*
X147247202Y-102500000D01*
X147290668Y-102594285D01*
X147294001Y-102599001D01*
X147384099Y-102726486D01*
X147416204Y-102771914D01*
X147572009Y-102923692D01*
X147752863Y-103044536D01*
X147758171Y-103046817D01*
X147758172Y-103046817D01*
X147947409Y-103128119D01*
X147947412Y-103128120D01*
X147952712Y-103130397D01*
X147958342Y-103131671D01*
X148143104Y-103173479D01*
X148164860Y-103178402D01*
X148170631Y-103178629D01*
X148170633Y-103178629D01*
X148239336Y-103181328D01*
X148382205Y-103186941D01*
X148597466Y-103155730D01*
X148602930Y-103153875D01*
X148602935Y-103153874D01*
X148797963Y-103087671D01*
X148797968Y-103087669D01*
X148803435Y-103085813D01*
X148993213Y-102979532D01*
X149160446Y-102840446D01*
X149299532Y-102673213D01*
X149405813Y-102483435D01*
X149407669Y-102477968D01*
X149407671Y-102477963D01*
X149472614Y-102286646D01*
X149513451Y-102228569D01*
X149579204Y-102201791D01*
X149648996Y-102214812D01*
X149700669Y-102263499D01*
X149714050Y-102296131D01*
X149739605Y-102396753D01*
X149742022Y-102401996D01*
X149787202Y-102500000D01*
X149830668Y-102594285D01*
X149834001Y-102599001D01*
X149924099Y-102726486D01*
X149956204Y-102771914D01*
X150112009Y-102923692D01*
X150292863Y-103044536D01*
X150298171Y-103046817D01*
X150298172Y-103046817D01*
X150487409Y-103128119D01*
X150487412Y-103128120D01*
X150492712Y-103130397D01*
X150498342Y-103131671D01*
X150683104Y-103173479D01*
X150704860Y-103178402D01*
X150710631Y-103178629D01*
X150710633Y-103178629D01*
X150779336Y-103181328D01*
X150922205Y-103186941D01*
X151137466Y-103155730D01*
X151142930Y-103153875D01*
X151142935Y-103153874D01*
X151337963Y-103087671D01*
X151337968Y-103087669D01*
X151343435Y-103085813D01*
X151533213Y-102979532D01*
X151700446Y-102840446D01*
X151839532Y-102673213D01*
X151936536Y-102500000D01*
X152361449Y-102500000D01*
X152381622Y-102756326D01*
X152382776Y-102761133D01*
X152382777Y-102761139D01*
X152419249Y-102913054D01*
X152441645Y-103006340D01*
X152443538Y-103010911D01*
X152443539Y-103010913D01*
X152514820Y-103183000D01*
X152540040Y-103243887D01*
X152674384Y-103463116D01*
X152841369Y-103658631D01*
X153036884Y-103825616D01*
X153256113Y-103959960D01*
X153260683Y-103961853D01*
X153260687Y-103961855D01*
X153489087Y-104056461D01*
X153493660Y-104058355D01*
X153580502Y-104079204D01*
X153738861Y-104117223D01*
X153738867Y-104117224D01*
X153743674Y-104118378D01*
X153832965Y-104125405D01*
X153933363Y-104133307D01*
X153933372Y-104133307D01*
X153935820Y-104133500D01*
X154064180Y-104133500D01*
X154066628Y-104133307D01*
X154066637Y-104133307D01*
X154167035Y-104125405D01*
X154256326Y-104118378D01*
X154261133Y-104117224D01*
X154261139Y-104117223D01*
X154419498Y-104079204D01*
X154506340Y-104058355D01*
X154510913Y-104056461D01*
X154739313Y-103961855D01*
X154739317Y-103961853D01*
X154743887Y-103959960D01*
X154963116Y-103825616D01*
X155158631Y-103658631D01*
X155325616Y-103463116D01*
X155459960Y-103243887D01*
X155485181Y-103183000D01*
X155556461Y-103010913D01*
X155556462Y-103010911D01*
X155558355Y-103006340D01*
X155580751Y-102913054D01*
X155617223Y-102761139D01*
X155617224Y-102761133D01*
X155618378Y-102756326D01*
X155638551Y-102500000D01*
X155618378Y-102243674D01*
X155558355Y-101993660D01*
X155491500Y-101832257D01*
X155461855Y-101760687D01*
X155461853Y-101760683D01*
X155459960Y-101756113D01*
X155325616Y-101536884D01*
X155158631Y-101341369D01*
X154963116Y-101174384D01*
X154743887Y-101040040D01*
X154739317Y-101038147D01*
X154739313Y-101038145D01*
X154510913Y-100943539D01*
X154510911Y-100943538D01*
X154506340Y-100941645D01*
X154419498Y-100920796D01*
X154261139Y-100882777D01*
X154261133Y-100882776D01*
X154256326Y-100881622D01*
X154167035Y-100874595D01*
X154066637Y-100866693D01*
X154066628Y-100866693D01*
X154064180Y-100866500D01*
X153935820Y-100866500D01*
X153933372Y-100866693D01*
X153933363Y-100866693D01*
X153832965Y-100874595D01*
X153743674Y-100881622D01*
X153738867Y-100882776D01*
X153738861Y-100882777D01*
X153580502Y-100920796D01*
X153493660Y-100941645D01*
X153489089Y-100943538D01*
X153489087Y-100943539D01*
X153260687Y-101038145D01*
X153260683Y-101038147D01*
X153256113Y-101040040D01*
X153036884Y-101174384D01*
X152841369Y-101341369D01*
X152674384Y-101536884D01*
X152540040Y-101756113D01*
X152538147Y-101760683D01*
X152538145Y-101760687D01*
X152508500Y-101832257D01*
X152441645Y-101993660D01*
X152381622Y-102243674D01*
X152361449Y-102500000D01*
X151936536Y-102500000D01*
X151945813Y-102483435D01*
X151947669Y-102477968D01*
X151947671Y-102477963D01*
X152013874Y-102282935D01*
X152013875Y-102282930D01*
X152015730Y-102277466D01*
X152046941Y-102062205D01*
X152048570Y-102000000D01*
X152028667Y-101783400D01*
X151969626Y-101574055D01*
X151873423Y-101378974D01*
X151794673Y-101273514D01*
X151746733Y-101209315D01*
X151746732Y-101209314D01*
X151743280Y-101204691D01*
X151615904Y-101086946D01*
X151587796Y-101060963D01*
X151587793Y-101060961D01*
X151583556Y-101057044D01*
X151399599Y-100940976D01*
X151197572Y-100860376D01*
X151008993Y-100822865D01*
X150989905Y-100819068D01*
X150989904Y-100819068D01*
X150984239Y-100817941D01*
X150978464Y-100817865D01*
X150978460Y-100817865D01*
X150869419Y-100816438D01*
X150766746Y-100815094D01*
X150761049Y-100816073D01*
X150761048Y-100816073D01*
X150558065Y-100850952D01*
X150558062Y-100850953D01*
X150552375Y-100851930D01*
X150348307Y-100927214D01*
X150161376Y-101038427D01*
X149997842Y-101181842D01*
X149994270Y-101186373D01*
X149872081Y-101341369D01*
X149863181Y-101352658D01*
X149761905Y-101545154D01*
X149760192Y-101550671D01*
X149709647Y-101713449D01*
X149670344Y-101772574D01*
X149605315Y-101801064D01*
X149535205Y-101789874D01*
X149482276Y-101742556D01*
X149468049Y-101710295D01*
X149429626Y-101574055D01*
X149333423Y-101378974D01*
X149254673Y-101273514D01*
X149206733Y-101209315D01*
X149206732Y-101209314D01*
X149203280Y-101204691D01*
X149075904Y-101086946D01*
X149047796Y-101060963D01*
X149047793Y-101060961D01*
X149043556Y-101057044D01*
X148859599Y-100940976D01*
X148657572Y-100860376D01*
X148468993Y-100822865D01*
X148449905Y-100819068D01*
X148449904Y-100819068D01*
X148444239Y-100817941D01*
X148438464Y-100817865D01*
X148438460Y-100817865D01*
X148329419Y-100816438D01*
X148226746Y-100815094D01*
X148221049Y-100816073D01*
X148221048Y-100816073D01*
X148018065Y-100850952D01*
X148018062Y-100850953D01*
X148012375Y-100851930D01*
X147808307Y-100927214D01*
X147621376Y-101038427D01*
X147457842Y-101181842D01*
X147454270Y-101186373D01*
X147332081Y-101341369D01*
X147323181Y-101352658D01*
X147221905Y-101545154D01*
X147220192Y-101550671D01*
X147169647Y-101713449D01*
X147130344Y-101772574D01*
X147065315Y-101801064D01*
X146995205Y-101789874D01*
X146942276Y-101742556D01*
X146928049Y-101710295D01*
X146889626Y-101574055D01*
X146793423Y-101378974D01*
X146714673Y-101273514D01*
X146666733Y-101209315D01*
X146666732Y-101209314D01*
X146663280Y-101204691D01*
X146535904Y-101086946D01*
X146507796Y-101060963D01*
X146507793Y-101060961D01*
X146503556Y-101057044D01*
X146319599Y-100940976D01*
X146117572Y-100860376D01*
X145928993Y-100822865D01*
X145909905Y-100819068D01*
X145909904Y-100819068D01*
X145904239Y-100817941D01*
X145898464Y-100817865D01*
X145898460Y-100817865D01*
X145789419Y-100816438D01*
X145686746Y-100815094D01*
X145681049Y-100816073D01*
X145681048Y-100816073D01*
X145478065Y-100850952D01*
X145478062Y-100850953D01*
X145472375Y-100851930D01*
X145268307Y-100927214D01*
X145081376Y-101038427D01*
X144917842Y-101181842D01*
X144914270Y-101186373D01*
X144792081Y-101341369D01*
X144783181Y-101352658D01*
X144681905Y-101545154D01*
X144680192Y-101550671D01*
X144629647Y-101713449D01*
X144590344Y-101772574D01*
X144525315Y-101801064D01*
X144455205Y-101789874D01*
X144402276Y-101742556D01*
X144388049Y-101710295D01*
X144349626Y-101574055D01*
X144253423Y-101378974D01*
X144174673Y-101273514D01*
X144126733Y-101209315D01*
X144126732Y-101209314D01*
X144123280Y-101204691D01*
X143995904Y-101086946D01*
X143967796Y-101060963D01*
X143967793Y-101060961D01*
X143963556Y-101057044D01*
X143779599Y-100940976D01*
X143577572Y-100860376D01*
X143388993Y-100822865D01*
X143369905Y-100819068D01*
X143369904Y-100819068D01*
X143364239Y-100817941D01*
X143358464Y-100817865D01*
X143358460Y-100817865D01*
X143249419Y-100816438D01*
X143146746Y-100815094D01*
X143141049Y-100816073D01*
X143141048Y-100816073D01*
X142938065Y-100850952D01*
X142938062Y-100850953D01*
X142932375Y-100851930D01*
X142728307Y-100927214D01*
X142541376Y-101038427D01*
X142377842Y-101181842D01*
X142374270Y-101186373D01*
X142252081Y-101341369D01*
X142243181Y-101352658D01*
X142141905Y-101545154D01*
X142140192Y-101550671D01*
X142089647Y-101713449D01*
X142050344Y-101772574D01*
X141985315Y-101801064D01*
X141915205Y-101789874D01*
X141862276Y-101742556D01*
X141848049Y-101710295D01*
X141809626Y-101574055D01*
X141713423Y-101378974D01*
X141634673Y-101273514D01*
X141586733Y-101209315D01*
X141586732Y-101209314D01*
X141583280Y-101204691D01*
X141455904Y-101086946D01*
X141427796Y-101060963D01*
X141427793Y-101060961D01*
X141423556Y-101057044D01*
X141239599Y-100940976D01*
X141037572Y-100860376D01*
X140848993Y-100822865D01*
X140829905Y-100819068D01*
X140829904Y-100819068D01*
X140824239Y-100817941D01*
X140818464Y-100817865D01*
X140818460Y-100817865D01*
X140709419Y-100816438D01*
X140606746Y-100815094D01*
X140601049Y-100816073D01*
X140601048Y-100816073D01*
X140398065Y-100850952D01*
X140398062Y-100850953D01*
X140392375Y-100851930D01*
X140188307Y-100927214D01*
X140001376Y-101038427D01*
X139837842Y-101181842D01*
X139834270Y-101186373D01*
X139712081Y-101341369D01*
X139703181Y-101352658D01*
X139601905Y-101545154D01*
X139600192Y-101550671D01*
X139549647Y-101713449D01*
X139510344Y-101772574D01*
X139445315Y-101801064D01*
X139375205Y-101789874D01*
X139322276Y-101742556D01*
X139308049Y-101710295D01*
X139269626Y-101574055D01*
X139173423Y-101378974D01*
X139094673Y-101273514D01*
X139046733Y-101209315D01*
X139046732Y-101209314D01*
X139043280Y-101204691D01*
X138915904Y-101086946D01*
X138887796Y-101060963D01*
X138887793Y-101060961D01*
X138883556Y-101057044D01*
X138699599Y-100940976D01*
X138497572Y-100860376D01*
X138308993Y-100822865D01*
X138289905Y-100819068D01*
X138289904Y-100819068D01*
X138284239Y-100817941D01*
X138278464Y-100817865D01*
X138278460Y-100817865D01*
X138169419Y-100816438D01*
X138066746Y-100815094D01*
X138061049Y-100816073D01*
X138061048Y-100816073D01*
X137858065Y-100850952D01*
X137858062Y-100850953D01*
X137852375Y-100851930D01*
X137648307Y-100927214D01*
X137461376Y-101038427D01*
X137297842Y-101181842D01*
X137294270Y-101186373D01*
X137172081Y-101341369D01*
X137163181Y-101352658D01*
X137061905Y-101545154D01*
X137060192Y-101550671D01*
X137009647Y-101713449D01*
X136970344Y-101772574D01*
X136905315Y-101801064D01*
X136835205Y-101789874D01*
X136782276Y-101742556D01*
X136768049Y-101710295D01*
X136729626Y-101574055D01*
X136633423Y-101378974D01*
X136554673Y-101273514D01*
X136506733Y-101209315D01*
X136506732Y-101209314D01*
X136503280Y-101204691D01*
X136375904Y-101086946D01*
X136347796Y-101060963D01*
X136347793Y-101060961D01*
X136343556Y-101057044D01*
X136159599Y-100940976D01*
X135957572Y-100860376D01*
X135768993Y-100822865D01*
X135749905Y-100819068D01*
X135749904Y-100819068D01*
X135744239Y-100817941D01*
X135738464Y-100817865D01*
X135738460Y-100817865D01*
X135629419Y-100816438D01*
X135526746Y-100815094D01*
X135521049Y-100816073D01*
X135521048Y-100816073D01*
X135318065Y-100850952D01*
X135318062Y-100850953D01*
X135312375Y-100851930D01*
X135108307Y-100927214D01*
X134921376Y-101038427D01*
X134757842Y-101181842D01*
X134754270Y-101186373D01*
X134632081Y-101341369D01*
X134623181Y-101352658D01*
X134521905Y-101545154D01*
X134520192Y-101550671D01*
X134469647Y-101713449D01*
X134430344Y-101772574D01*
X134365315Y-101801064D01*
X134295205Y-101789874D01*
X134242276Y-101742556D01*
X134228049Y-101710295D01*
X134189626Y-101574055D01*
X134093423Y-101378974D01*
X134014673Y-101273514D01*
X133966733Y-101209315D01*
X133966732Y-101209314D01*
X133963280Y-101204691D01*
X133835904Y-101086946D01*
X133807796Y-101060963D01*
X133807793Y-101060961D01*
X133803556Y-101057044D01*
X133619599Y-100940976D01*
X133417572Y-100860376D01*
X133228993Y-100822865D01*
X133209905Y-100819068D01*
X133209904Y-100819068D01*
X133204239Y-100817941D01*
X133198464Y-100817865D01*
X133198460Y-100817865D01*
X133089419Y-100816438D01*
X132986746Y-100815094D01*
X132981049Y-100816073D01*
X132981048Y-100816073D01*
X132778065Y-100850952D01*
X132778062Y-100850953D01*
X132772375Y-100851930D01*
X132568307Y-100927214D01*
X132381376Y-101038427D01*
X132217842Y-101181842D01*
X132214270Y-101186373D01*
X132092081Y-101341369D01*
X132083181Y-101352658D01*
X131981905Y-101545154D01*
X131980192Y-101550671D01*
X131929647Y-101713449D01*
X131890344Y-101772574D01*
X131825315Y-101801064D01*
X131755205Y-101789874D01*
X131702276Y-101742556D01*
X131688049Y-101710295D01*
X131649626Y-101574055D01*
X131553423Y-101378974D01*
X131474673Y-101273514D01*
X131426733Y-101209315D01*
X131426732Y-101209314D01*
X131423280Y-101204691D01*
X131295904Y-101086946D01*
X131267796Y-101060963D01*
X131267793Y-101060961D01*
X131263556Y-101057044D01*
X131079599Y-100940976D01*
X130877572Y-100860376D01*
X130688993Y-100822865D01*
X130669905Y-100819068D01*
X130669904Y-100819068D01*
X130664239Y-100817941D01*
X130658464Y-100817865D01*
X130658460Y-100817865D01*
X130549419Y-100816438D01*
X130446746Y-100815094D01*
X130441049Y-100816073D01*
X130441048Y-100816073D01*
X130238065Y-100850952D01*
X130238062Y-100850953D01*
X130232375Y-100851930D01*
X130028307Y-100927214D01*
X129841376Y-101038427D01*
X129677842Y-101181842D01*
X129674270Y-101186373D01*
X129552081Y-101341369D01*
X129543181Y-101352658D01*
X129441905Y-101545154D01*
X129440192Y-101550671D01*
X129389647Y-101713449D01*
X129350344Y-101772574D01*
X129285315Y-101801064D01*
X129215205Y-101789874D01*
X129162276Y-101742556D01*
X129148049Y-101710295D01*
X129109626Y-101574055D01*
X129013423Y-101378974D01*
X128934673Y-101273514D01*
X128886733Y-101209315D01*
X128886732Y-101209314D01*
X128883280Y-101204691D01*
X128755904Y-101086946D01*
X128727796Y-101060963D01*
X128727793Y-101060961D01*
X128723556Y-101057044D01*
X128539599Y-100940976D01*
X128337572Y-100860376D01*
X128148993Y-100822865D01*
X128129905Y-100819068D01*
X128129904Y-100819068D01*
X128124239Y-100817941D01*
X128118464Y-100817865D01*
X128118460Y-100817865D01*
X128009419Y-100816438D01*
X127906746Y-100815094D01*
X127901049Y-100816073D01*
X127901048Y-100816073D01*
X127698065Y-100850952D01*
X127698062Y-100850953D01*
X127692375Y-100851930D01*
X127488307Y-100927214D01*
X127301376Y-101038427D01*
X127137842Y-101181842D01*
X127134270Y-101186373D01*
X127012081Y-101341369D01*
X127003181Y-101352658D01*
X126901905Y-101545154D01*
X126900192Y-101550671D01*
X126849647Y-101713449D01*
X126810344Y-101772574D01*
X126745315Y-101801064D01*
X126675205Y-101789874D01*
X126622276Y-101742556D01*
X126608049Y-101710295D01*
X126569626Y-101574055D01*
X126473423Y-101378974D01*
X126394673Y-101273514D01*
X126346733Y-101209315D01*
X126346732Y-101209314D01*
X126343280Y-101204691D01*
X126215904Y-101086946D01*
X126187796Y-101060963D01*
X126187793Y-101060961D01*
X126183556Y-101057044D01*
X125999599Y-100940976D01*
X125797572Y-100860376D01*
X125608993Y-100822865D01*
X125589905Y-100819068D01*
X125589904Y-100819068D01*
X125584239Y-100817941D01*
X125578464Y-100817865D01*
X125578460Y-100817865D01*
X125469419Y-100816438D01*
X125366746Y-100815094D01*
X125361049Y-100816073D01*
X125361048Y-100816073D01*
X125158065Y-100850952D01*
X125158062Y-100850953D01*
X125152375Y-100851930D01*
X124948307Y-100927214D01*
X124761376Y-101038427D01*
X124597842Y-101181842D01*
X124594270Y-101186373D01*
X124472081Y-101341369D01*
X124463181Y-101352658D01*
X124361905Y-101545154D01*
X124360192Y-101550671D01*
X124309647Y-101713449D01*
X124270344Y-101772574D01*
X124205315Y-101801064D01*
X124135205Y-101789874D01*
X124082276Y-101742556D01*
X124068049Y-101710295D01*
X124029626Y-101574055D01*
X123933423Y-101378974D01*
X123854673Y-101273514D01*
X123806733Y-101209315D01*
X123806732Y-101209314D01*
X123803280Y-101204691D01*
X123675904Y-101086946D01*
X123647796Y-101060963D01*
X123647793Y-101060961D01*
X123643556Y-101057044D01*
X123459599Y-100940976D01*
X123257572Y-100860376D01*
X123068993Y-100822865D01*
X123049905Y-100819068D01*
X123049904Y-100819068D01*
X123044239Y-100817941D01*
X123038464Y-100817865D01*
X123038460Y-100817865D01*
X122929419Y-100816438D01*
X122826746Y-100815094D01*
X122821049Y-100816073D01*
X122821048Y-100816073D01*
X122618065Y-100850952D01*
X122618062Y-100850953D01*
X122612375Y-100851930D01*
X122408307Y-100927214D01*
X122221376Y-101038427D01*
X122057842Y-101181842D01*
X122054270Y-101186373D01*
X121932081Y-101341369D01*
X121923181Y-101352658D01*
X121821905Y-101545154D01*
X121820192Y-101550671D01*
X121769647Y-101713449D01*
X121730344Y-101772574D01*
X121665315Y-101801064D01*
X121595205Y-101789874D01*
X121542276Y-101742556D01*
X121528049Y-101710295D01*
X121489626Y-101574055D01*
X121393423Y-101378974D01*
X121314673Y-101273514D01*
X121266733Y-101209315D01*
X121266732Y-101209314D01*
X121263280Y-101204691D01*
X121135904Y-101086946D01*
X121107796Y-101060963D01*
X121107793Y-101060961D01*
X121103556Y-101057044D01*
X120919599Y-100940976D01*
X120717572Y-100860376D01*
X120528993Y-100822865D01*
X120509905Y-100819068D01*
X120509904Y-100819068D01*
X120504239Y-100817941D01*
X120498464Y-100817865D01*
X120498460Y-100817865D01*
X120389419Y-100816438D01*
X120286746Y-100815094D01*
X120281049Y-100816073D01*
X120281048Y-100816073D01*
X120078065Y-100850952D01*
X120078062Y-100850953D01*
X120072375Y-100851930D01*
X119868307Y-100927214D01*
X119681376Y-101038427D01*
X119517842Y-101181842D01*
X119514270Y-101186373D01*
X119392081Y-101341369D01*
X119383181Y-101352658D01*
X119281905Y-101545154D01*
X119280192Y-101550671D01*
X119229647Y-101713449D01*
X119190344Y-101772574D01*
X119125315Y-101801064D01*
X119055205Y-101789874D01*
X119002276Y-101742556D01*
X118988049Y-101710295D01*
X118949626Y-101574055D01*
X118853423Y-101378974D01*
X118774673Y-101273514D01*
X118726733Y-101209315D01*
X118726732Y-101209314D01*
X118723280Y-101204691D01*
X118595904Y-101086946D01*
X118567796Y-101060963D01*
X118567793Y-101060961D01*
X118563556Y-101057044D01*
X118379599Y-100940976D01*
X118177572Y-100860376D01*
X117988993Y-100822865D01*
X117969905Y-100819068D01*
X117969904Y-100819068D01*
X117964239Y-100817941D01*
X117958464Y-100817865D01*
X117958460Y-100817865D01*
X117849419Y-100816438D01*
X117746746Y-100815094D01*
X117741049Y-100816073D01*
X117741048Y-100816073D01*
X117538065Y-100850952D01*
X117538062Y-100850953D01*
X117532375Y-100851930D01*
X117328307Y-100927214D01*
X117141376Y-101038427D01*
X116977842Y-101181842D01*
X116974270Y-101186373D01*
X116852081Y-101341369D01*
X116843181Y-101352658D01*
X116741905Y-101545154D01*
X116740192Y-101550671D01*
X116689647Y-101713449D01*
X116650344Y-101772574D01*
X116585315Y-101801064D01*
X116515205Y-101789874D01*
X116462276Y-101742556D01*
X116448049Y-101710295D01*
X116409626Y-101574055D01*
X116313423Y-101378974D01*
X116234673Y-101273514D01*
X116186733Y-101209315D01*
X116186732Y-101209314D01*
X116183280Y-101204691D01*
X116055904Y-101086946D01*
X116027796Y-101060963D01*
X116027793Y-101060961D01*
X116023556Y-101057044D01*
X115839599Y-100940976D01*
X115637572Y-100860376D01*
X115448993Y-100822865D01*
X115429905Y-100819068D01*
X115429904Y-100819068D01*
X115424239Y-100817941D01*
X115418464Y-100817865D01*
X115418460Y-100817865D01*
X115309419Y-100816438D01*
X115206746Y-100815094D01*
X115201049Y-100816073D01*
X115201048Y-100816073D01*
X114998065Y-100850952D01*
X114998062Y-100850953D01*
X114992375Y-100851930D01*
X114788307Y-100927214D01*
X114601376Y-101038427D01*
X114437842Y-101181842D01*
X114434270Y-101186373D01*
X114312081Y-101341369D01*
X114303181Y-101352658D01*
X114201905Y-101545154D01*
X114200192Y-101550671D01*
X114149647Y-101713449D01*
X114110344Y-101772574D01*
X114045315Y-101801064D01*
X113975205Y-101789874D01*
X113922276Y-101742556D01*
X113908049Y-101710295D01*
X113869626Y-101574055D01*
X113773423Y-101378974D01*
X113694673Y-101273514D01*
X113646733Y-101209315D01*
X113646732Y-101209314D01*
X113643280Y-101204691D01*
X113515904Y-101086946D01*
X113487796Y-101060963D01*
X113487793Y-101060961D01*
X113483556Y-101057044D01*
X113299599Y-100940976D01*
X113097572Y-100860376D01*
X112908993Y-100822865D01*
X112889905Y-100819068D01*
X112889904Y-100819068D01*
X112884239Y-100817941D01*
X112878464Y-100817865D01*
X112878460Y-100817865D01*
X112769419Y-100816438D01*
X112666746Y-100815094D01*
X112661049Y-100816073D01*
X112661048Y-100816073D01*
X112458065Y-100850952D01*
X112458062Y-100850953D01*
X112452375Y-100851930D01*
X112248307Y-100927214D01*
X112061376Y-101038427D01*
X111897842Y-101181842D01*
X111894270Y-101186373D01*
X111772081Y-101341369D01*
X111763181Y-101352658D01*
X111661905Y-101545154D01*
X111660192Y-101550671D01*
X111609647Y-101713449D01*
X111570344Y-101772574D01*
X111505315Y-101801064D01*
X111435205Y-101789874D01*
X111382276Y-101742556D01*
X111368049Y-101710295D01*
X111329626Y-101574055D01*
X111233423Y-101378974D01*
X111154673Y-101273514D01*
X111106733Y-101209315D01*
X111106732Y-101209314D01*
X111103280Y-101204691D01*
X110975904Y-101086946D01*
X110947796Y-101060963D01*
X110947793Y-101060961D01*
X110943556Y-101057044D01*
X110759599Y-100940976D01*
X110557572Y-100860376D01*
X110368993Y-100822865D01*
X110349905Y-100819068D01*
X110349904Y-100819068D01*
X110344239Y-100817941D01*
X110338464Y-100817865D01*
X110338460Y-100817865D01*
X110229419Y-100816438D01*
X110126746Y-100815094D01*
X110121049Y-100816073D01*
X110121048Y-100816073D01*
X109918065Y-100850952D01*
X109918062Y-100850953D01*
X109912375Y-100851930D01*
X109708307Y-100927214D01*
X109521376Y-101038427D01*
X109357842Y-101181842D01*
X109354270Y-101186373D01*
X109232081Y-101341369D01*
X109223181Y-101352658D01*
X109121905Y-101545154D01*
X109120192Y-101550671D01*
X109069647Y-101713449D01*
X109030344Y-101772574D01*
X108965315Y-101801064D01*
X108895205Y-101789874D01*
X108842276Y-101742556D01*
X108828049Y-101710295D01*
X108789626Y-101574055D01*
X108693423Y-101378974D01*
X108614673Y-101273514D01*
X108566733Y-101209315D01*
X108566732Y-101209314D01*
X108563280Y-101204691D01*
X108435904Y-101086946D01*
X108407796Y-101060963D01*
X108407793Y-101060961D01*
X108403556Y-101057044D01*
X108219599Y-100940976D01*
X108017572Y-100860376D01*
X107828993Y-100822865D01*
X107809905Y-100819068D01*
X107809904Y-100819068D01*
X107804239Y-100817941D01*
X107798464Y-100817865D01*
X107798460Y-100817865D01*
X107689419Y-100816438D01*
X107586746Y-100815094D01*
X107581049Y-100816073D01*
X107581048Y-100816073D01*
X107378065Y-100850952D01*
X107378062Y-100850953D01*
X107372375Y-100851930D01*
X107168307Y-100927214D01*
X106981376Y-101038427D01*
X106817842Y-101181842D01*
X106814270Y-101186373D01*
X106692081Y-101341369D01*
X106683181Y-101352658D01*
X106581905Y-101545154D01*
X106580192Y-101550671D01*
X106569331Y-101585648D01*
X106530028Y-101644773D01*
X106464998Y-101673263D01*
X106394889Y-101662073D01*
X106341960Y-101614755D01*
X106322999Y-101548283D01*
X106322999Y-101280331D01*
X106322629Y-101273510D01*
X106317105Y-101222648D01*
X106313479Y-101207396D01*
X106268324Y-101086946D01*
X106259786Y-101071351D01*
X106183285Y-100969276D01*
X106170724Y-100956715D01*
X106068649Y-100880214D01*
X106053054Y-100871676D01*
X105932606Y-100826522D01*
X105917351Y-100822895D01*
X105866486Y-100817369D01*
X105859672Y-100817000D01*
X105412115Y-100817000D01*
X105396876Y-100821475D01*
X105395671Y-100822865D01*
X105394000Y-100830548D01*
X105394000Y-103164884D01*
X104886000Y-103164884D01*
X104886000Y-102272115D01*
X104881525Y-102256876D01*
X104880135Y-102255671D01*
X104872452Y-102254000D01*
X103975116Y-102254000D01*
X103959877Y-102258475D01*
X103958672Y-102259865D01*
X103957001Y-102267548D01*
X103957001Y-102719669D01*
X103621263Y-102719669D01*
X103638551Y-102500000D01*
X103618378Y-102243674D01*
X103558355Y-101993660D01*
X103491500Y-101832257D01*
X103461855Y-101760687D01*
X103461853Y-101760683D01*
X103459960Y-101756113D01*
X103442662Y-101727885D01*
X103957000Y-101727885D01*
X103961475Y-101743124D01*
X103962865Y-101744329D01*
X103970548Y-101746000D01*
X104867885Y-101746000D01*
X104883124Y-101741525D01*
X104884329Y-101740135D01*
X104886000Y-101732452D01*
X104886000Y-100835116D01*
X104881525Y-100819877D01*
X104880135Y-100818672D01*
X104872452Y-100817001D01*
X104420331Y-100817001D01*
X104413510Y-100817371D01*
X104362648Y-100822895D01*
X104347396Y-100826521D01*
X104226946Y-100871676D01*
X104211351Y-100880214D01*
X104109276Y-100956715D01*
X104096715Y-100969276D01*
X104020214Y-101071351D01*
X104011676Y-101086946D01*
X103966522Y-101207394D01*
X103962895Y-101222649D01*
X103957369Y-101273514D01*
X103957000Y-101280328D01*
X103957000Y-101727885D01*
X103442662Y-101727885D01*
X103325616Y-101536884D01*
X103158631Y-101341369D01*
X102963116Y-101174384D01*
X102743887Y-101040040D01*
X102739317Y-101038147D01*
X102739313Y-101038145D01*
X102510913Y-100943539D01*
X102510911Y-100943538D01*
X102506340Y-100941645D01*
X102419498Y-100920796D01*
X102261139Y-100882777D01*
X102261133Y-100882776D01*
X102256326Y-100881622D01*
X102167035Y-100874595D01*
X102066637Y-100866693D01*
X102066628Y-100866693D01*
X102064180Y-100866500D01*
X101935820Y-100866500D01*
X101933372Y-100866693D01*
X101933363Y-100866693D01*
X101832965Y-100874595D01*
X101743674Y-100881622D01*
X101738867Y-100882776D01*
X101738861Y-100882777D01*
X101580502Y-100920796D01*
X101493660Y-100941645D01*
X101489089Y-100943538D01*
X101489087Y-100943539D01*
X101260687Y-101038145D01*
X101260683Y-101038147D01*
X101256113Y-101040040D01*
X101036884Y-101174384D01*
X100841369Y-101341369D01*
X100784125Y-101408394D01*
X100730311Y-101471402D01*
X100670861Y-101510211D01*
X100599866Y-101510719D01*
X100539867Y-101472763D01*
X100509914Y-101408394D01*
X100508500Y-101389572D01*
X100508500Y-100634500D01*
X100528502Y-100566379D01*
X100582158Y-100519886D01*
X100634500Y-100508500D01*
X170365500Y-100508500D01*
X170433621Y-100528502D01*
G37*
%TD.AperFunction*%
%TD*%
M02*
