%TF.GenerationSoftware,KiCad,Pcbnew,(6.0.7)*%
%TF.CreationDate,2022-11-27T14:48:19+01:00*%
%TF.ProjectId,LOOCBaseSystem,4c4f4f43-4261-4736-9553-797374656d2e,rev?*%
%TF.SameCoordinates,Original*%
%TF.FileFunction,Legend,Top*%
%TF.FilePolarity,Positive*%
%FSLAX46Y46*%
G04 Gerber Fmt 4.6, Leading zero omitted, Abs format (unit mm)*
G04 Created by KiCad (PCBNEW (6.0.7)) date 2022-11-27 14:48:19*
%MOMM*%
%LPD*%
G01*
G04 APERTURE LIST*
%ADD10C,0.150000*%
%ADD11C,0.127000*%
%ADD12C,0.120000*%
G04 APERTURE END LIST*
D10*
%TO.C,H4*%
X104238095Y-103752380D02*
X104238095Y-102752380D01*
X104238095Y-103228571D02*
X104809523Y-103228571D01*
X104809523Y-103752380D02*
X104809523Y-102752380D01*
X105714285Y-103085714D02*
X105714285Y-103752380D01*
X105476190Y-102704761D02*
X105238095Y-103419047D01*
X105857142Y-103419047D01*
%TO.C,H3*%
X104238095Y-118752380D02*
X104238095Y-117752380D01*
X104238095Y-118228571D02*
X104809523Y-118228571D01*
X104809523Y-118752380D02*
X104809523Y-117752380D01*
X105190476Y-117752380D02*
X105809523Y-117752380D01*
X105476190Y-118133333D01*
X105619047Y-118133333D01*
X105714285Y-118180952D01*
X105761904Y-118228571D01*
X105809523Y-118323809D01*
X105809523Y-118561904D01*
X105761904Y-118657142D01*
X105714285Y-118704761D01*
X105619047Y-118752380D01*
X105333333Y-118752380D01*
X105238095Y-118704761D01*
X105190476Y-118657142D01*
%TO.C,H2*%
X149238095Y-118752380D02*
X149238095Y-117752380D01*
X149238095Y-118228571D02*
X149809523Y-118228571D01*
X149809523Y-118752380D02*
X149809523Y-117752380D01*
X150238095Y-117847619D02*
X150285714Y-117800000D01*
X150380952Y-117752380D01*
X150619047Y-117752380D01*
X150714285Y-117800000D01*
X150761904Y-117847619D01*
X150809523Y-117942857D01*
X150809523Y-118038095D01*
X150761904Y-118180952D01*
X150190476Y-118752380D01*
X150809523Y-118752380D01*
%TO.C,H1*%
X149238095Y-103752380D02*
X149238095Y-102752380D01*
X149238095Y-103228571D02*
X149809523Y-103228571D01*
X149809523Y-103752380D02*
X149809523Y-102752380D01*
X150809523Y-103752380D02*
X150238095Y-103752380D01*
X150523809Y-103752380D02*
X150523809Y-102752380D01*
X150428571Y-102895238D01*
X150333333Y-102990476D01*
X150238095Y-103038095D01*
D11*
%TO.C,U1*%
X155500000Y-101000000D02*
X100500000Y-101000000D01*
X155500000Y-101000000D02*
X155500000Y-129000000D01*
X155500000Y-129000000D02*
X100500000Y-129000000D01*
X100500000Y-101000000D02*
X100500000Y-129000000D01*
D12*
%TO.C,J1*%
X162200000Y-108190000D02*
X161700000Y-108690000D01*
X156800000Y-121200000D02*
X156800000Y-108800000D01*
X161200000Y-108190000D02*
X162200000Y-108190000D01*
X156800000Y-108800000D02*
X162270000Y-108800000D01*
X170200000Y-121200000D02*
X165730000Y-121200000D01*
X170200000Y-108800000D02*
X170200000Y-121200000D01*
X170200000Y-108800000D02*
X165730000Y-108800000D01*
X162270000Y-121200000D02*
X156800000Y-121200000D01*
X161700000Y-108690000D02*
X161200000Y-108190000D01*
%TD*%
M02*
