M48
; DRILL file {KiCad (6.0.7)} date Sun Nov 27 14:48:15 2022
; FORMAT={-:-/ absolute / inch / decimal}
; #@! TF.CreationDate,2022-11-27T14:48:15+01:00
; #@! TF.GenerationSoftware,Kicad,Pcbnew,(6.0.7)
; #@! TF.FileFunction,Plated,1,2,PTH
FMAT,2
INCH
; #@! TA.AperFunction,Plated,PTH,ComponentDrill
T1C0.0354
%
G90
G05
T1
X4.1394Y-4.0157
X4.1394Y-5.0394
X4.2394Y-4.0157
X4.2394Y-5.0394
X4.3394Y-4.0157
X4.3394Y-5.0394
X4.4394Y-4.0157
X4.4394Y-5.0394
X4.5394Y-4.0157
X4.5394Y-5.0394
X4.6394Y-4.0157
X4.6394Y-5.0394
X4.7394Y-4.0157
X4.7394Y-5.0394
X4.8394Y-4.0157
X4.8394Y-5.0394
X4.9394Y-4.0157
X4.9394Y-5.0394
X5.0394Y-4.0157
X5.0394Y-5.0394
X5.1394Y-4.0157
X5.1394Y-5.0394
X5.2394Y-4.0157
X5.2394Y-5.0394
X5.3394Y-4.0157
X5.3394Y-5.0394
X5.4394Y-4.0157
X5.4394Y-5.0394
X5.5394Y-4.0157
X5.5394Y-5.0394
X5.6394Y-4.0157
X5.6394Y-5.0394
X5.7394Y-4.0157
X5.7394Y-5.0394
X5.8394Y-4.0157
X5.8394Y-5.0394
X5.9394Y-4.0157
X5.9394Y-5.0394
X6.2661Y-4.5075
X6.2661Y-4.5878
X6.3661Y-4.4673
X6.3661Y-4.5476
T0
M30
